<svg width="373" height="404" viewBox="0 0 373 404" fill="none" xmlns="http://www.w3.org/2000/svg">
<rect x="20" width="99" height="30" rx="15" fill="white" fill-opacity="0.1"/>
<g clip-path="url(#clip0_440_1417)">
<path d="M38 23C42.4183 23 46 19.4183 46 15C46 10.5817 42.4183 7 38 7C33.5817 7 30 10.5817 30 15C30 19.4183 33.5817 23 38 23Z" fill="#627EEA"/>
<path d="M38.249 9V13.435L41.9975 15.11L38.249 9Z" fill="white" fill-opacity="0.602"/>
<path d="M38.249 9L34.5 15.11L38.249 13.435V9Z" fill="white"/>
<path d="M38.249 17.9841V20.9976L42 15.8081L38.249 17.9841Z" fill="white" fill-opacity="0.602"/>
<path d="M38.249 20.9976V17.9836L34.5 15.8081L38.249 20.9976Z" fill="white"/>
<path d="M38.249 17.2865L41.9975 15.11L38.249 13.436V17.2865Z" fill="white" fill-opacity="0.2"/>
<path d="M34.5 15.11L38.249 17.2865V13.436L34.5 15.11Z" fill="white" fill-opacity="0.602"/>
</g>
<path d="M52.799 19V11.7273H57.3587V12.6719H53.8963V14.8878H57.1207V15.8288H53.8963V18.0554H57.4013V19H52.799ZM58.4657 12.6719V11.7273H64.0943V12.6719H61.8251V19H60.7314V12.6719H58.4657ZM65.3381 19V11.7273H66.4354V14.8878H70.0611V11.7273H71.1619V19H70.0611V15.8288H66.4354V19H65.3381ZM78.0911 11.3864L75.7473 20.0938H74.7992L77.1429 11.3864H78.0911ZM86.4016 11.7273H87.5025V16.5107C87.5025 17.0196 87.3829 17.4706 87.1438 17.8636C86.9047 18.2543 86.5685 18.562 86.1353 18.7869C85.7021 19.0095 85.1942 19.1207 84.6119 19.1207C84.0318 19.1207 83.5252 19.0095 83.092 18.7869C82.6587 18.562 82.3226 18.2543 82.0835 17.8636C81.8443 17.4706 81.7248 17.0196 81.7248 16.5107V11.7273H82.8221V16.4219C82.8221 16.7509 82.8943 17.0433 83.0387 17.299C83.1855 17.5547 83.3926 17.7559 83.6602 17.9027C83.9277 18.0471 84.2449 18.1193 84.6119 18.1193C84.9812 18.1193 85.2996 18.0471 85.5671 17.9027C85.837 17.7559 86.043 17.5547 86.185 17.299C86.3294 17.0433 86.4016 16.7509 86.4016 16.4219V11.7273ZM93.0645 13.6378C93.0266 13.3016 92.8703 13.0412 92.5957 12.8565C92.3211 12.6695 91.9754 12.576 91.5588 12.576C91.2605 12.576 91.0024 12.6233 90.7846 12.718C90.5668 12.8104 90.3975 12.9382 90.2768 13.1016C90.1584 13.2625 90.0993 13.446 90.0993 13.652C90.0993 13.8248 90.1395 13.974 90.22 14.0994C90.3029 14.2249 90.4106 14.3303 90.5431 14.4155C90.6781 14.4983 90.8225 14.5682 90.9764 14.625C91.1303 14.6795 91.2782 14.7244 91.4203 14.7599L92.1305 14.9446C92.3625 15.0014 92.6004 15.0784 92.8443 15.1754C93.0881 15.2725 93.3142 15.4003 93.5225 15.5589C93.7309 15.7176 93.899 15.9141 94.0268 16.1484C94.157 16.3828 94.2221 16.6634 94.2221 16.9901C94.2221 17.402 94.1156 17.7678 93.9025 18.0874C93.6918 18.407 93.3852 18.6591 92.9828 18.8438C92.5827 19.0284 92.0985 19.1207 91.5304 19.1207C90.9859 19.1207 90.5147 19.0343 90.117 18.8615C89.7193 18.6887 89.408 18.4437 89.1831 18.1264C88.9582 17.8068 88.8339 17.428 88.8102 16.9901H89.911C89.9324 17.2528 90.0176 17.4718 90.1667 17.647C90.3182 17.8198 90.5112 17.9489 90.7456 18.0341C90.9823 18.117 91.2415 18.1584 91.5233 18.1584C91.8334 18.1584 92.1092 18.1098 92.3507 18.0128C92.5945 17.9134 92.7863 17.776 92.926 17.6009C93.0656 17.4233 93.1355 17.2161 93.1355 16.9794C93.1355 16.764 93.0739 16.5876 92.9508 16.4503C92.8301 16.313 92.6655 16.1993 92.4572 16.1094C92.2512 16.0194 92.0181 15.9401 91.7576 15.8714L90.8983 15.6371C90.3159 15.4785 89.8542 15.2453 89.5133 14.9375C89.1748 14.6297 89.0055 14.2225 89.0055 13.7159C89.0055 13.2969 89.1191 12.9311 89.3464 12.6186C89.5737 12.3061 89.8815 12.0634 90.2697 11.8906C90.658 11.7154 91.0959 11.6278 91.5836 11.6278C92.0761 11.6278 92.5105 11.7143 92.8869 11.8871C93.2657 12.0599 93.564 12.2978 93.7818 12.6009C93.9996 12.9015 94.1132 13.2472 94.1227 13.6378H93.0645ZM97.8878 19H95.5334V11.7273H97.9624C98.675 11.7273 99.2869 11.8729 99.7983 12.1641C100.31 12.4529 100.701 12.8684 100.974 13.4105C101.248 13.9503 101.386 14.5978 101.386 15.353C101.386 16.1106 101.247 16.7616 100.97 17.3061C100.696 17.8506 100.298 18.2696 99.777 18.5632C99.2562 18.8544 98.6264 19 97.8878 19ZM96.6307 18.0412H97.8274C98.3814 18.0412 98.8419 17.937 99.2088 17.7287C99.5758 17.518 99.8504 17.2138 100.033 16.8161C100.215 16.416 100.306 15.9283 100.306 15.353C100.306 14.7824 100.215 14.2983 100.033 13.9006C99.8527 13.5028 99.584 13.201 99.2266 12.995C98.8691 12.7891 98.4252 12.6861 97.8949 12.6861H96.6307V18.0412ZM102.079 12.6719V11.7273H107.708V12.6719H105.438V19H104.345V12.6719H102.079Z" fill="white"/>
<path d="M22.0682 71V67.9545L30.1477 60.0341C30.9205 59.2538 31.5644 58.5606 32.0795 57.9545C32.5947 57.3485 32.9811 56.7614 33.2386 56.1932C33.4962 55.625 33.625 55.0189 33.625 54.375C33.625 53.6402 33.4583 53.0114 33.125 52.4886C32.7917 51.9583 32.3333 51.5492 31.75 51.2614C31.1667 50.9735 30.5038 50.8295 29.7614 50.8295C28.9962 50.8295 28.3258 50.9886 27.75 51.3068C27.1742 51.6174 26.7273 52.0606 26.4091 52.6364C26.0985 53.2121 25.9432 53.8977 25.9432 54.6932H21.9318C21.9318 53.2159 22.2689 51.9318 22.9432 50.8409C23.6174 49.75 24.5455 48.9053 25.7273 48.3068C26.9167 47.7083 28.2803 47.4091 29.8182 47.4091C31.3788 47.4091 32.75 47.7008 33.9318 48.2841C35.1136 48.8674 36.0303 49.6667 36.6818 50.6818C37.3409 51.697 37.6705 52.8561 37.6705 54.1591C37.6705 55.0303 37.5038 55.8864 37.1705 56.7273C36.8371 57.5682 36.25 58.5 35.4091 59.5227C34.5758 60.5455 33.4053 61.7841 31.8977 63.2386L27.8864 67.3182V67.4773H38.0227V71H22.0682ZM46.1782 67.8182L46.0305 69.0682C45.9244 70.0227 45.735 70.9924 45.4623 71.9773C45.1971 72.9697 44.9168 73.8826 44.6214 74.7159C44.3259 75.5492 44.0873 76.2045 43.9055 76.6818H41.1327C41.2388 76.2197 41.3827 75.5909 41.5645 74.7955C41.7539 74 41.9358 73.1061 42.11 72.1136C42.2842 71.1212 42.4017 70.1136 42.4623 69.0909L42.5418 67.8182H46.1782ZM57.4984 71.3182C55.809 71.3182 54.309 71.0341 52.9984 70.4659C51.6954 69.8977 50.6727 69.1212 49.9302 68.1364C49.1954 67.1439 48.8317 66.0189 48.8393 64.7614C48.8317 63.7841 49.0439 62.8864 49.4757 62.0682C49.9075 61.25 50.4908 60.5682 51.2257 60.0227C51.9681 59.4697 52.7939 59.1174 53.703 58.9659V58.8068C52.506 58.5417 51.5363 57.9318 50.7939 56.9773C50.059 56.0152 49.6954 54.9053 49.703 53.6477C49.6954 52.4508 50.0287 51.3826 50.703 50.4432C51.3772 49.5038 52.3014 48.7652 53.4757 48.2273C54.6499 47.6818 55.9908 47.4091 57.4984 47.4091C58.9908 47.4091 60.3204 47.6818 61.487 48.2273C62.6613 48.7652 63.5855 49.5038 64.2598 50.4432C64.9416 51.3826 65.2825 52.4508 65.2825 53.6477C65.2825 54.9053 64.9075 56.0152 64.1575 56.9773C63.4151 57.9318 62.4567 58.5417 61.2825 58.8068V58.9659C62.1916 59.1174 63.0098 59.4697 63.737 60.0227C64.4719 60.5682 65.0552 61.25 65.487 62.0682C65.9264 62.8864 66.1461 63.7841 66.1461 64.7614C66.1461 66.0189 65.7749 67.1439 65.0325 68.1364C64.2901 69.1212 63.2673 69.8977 61.9643 70.4659C60.6689 71.0341 59.1802 71.3182 57.4984 71.3182ZM57.4984 68.0682C58.3696 68.0682 59.1272 67.9205 59.7711 67.625C60.4151 67.322 60.9151 66.8977 61.2711 66.3523C61.6272 65.8068 61.809 65.178 61.8166 64.4659C61.809 63.7235 61.6158 63.0682 61.237 62.5C60.8658 61.9242 60.3545 61.4735 59.703 61.1477C59.059 60.822 58.3242 60.6591 57.4984 60.6591C56.6651 60.6591 55.9227 60.822 55.2711 61.1477C54.6196 61.4735 54.1045 61.9242 53.7257 62.5C53.3545 63.0682 53.1727 63.7235 53.1802 64.4659C53.1727 65.178 53.3469 65.8068 53.703 66.3523C54.059 66.8902 54.559 67.3106 55.203 67.6136C55.8545 67.9167 56.6196 68.0682 57.4984 68.0682ZM57.4984 57.4659C58.2105 57.4659 58.8393 57.322 59.3848 57.0341C59.9378 56.7462 60.3734 56.3447 60.6916 55.8295C61.0098 55.3144 61.1727 54.7197 61.1802 54.0455C61.1727 53.3788 61.0136 52.7955 60.703 52.2955C60.3923 51.7879 59.9605 51.3977 59.4075 51.125C58.8545 50.8447 58.2181 50.7045 57.4984 50.7045C56.7636 50.7045 56.1158 50.8447 55.5552 51.125C55.0022 51.3977 54.5704 51.7879 54.2598 52.2955C53.9567 52.7955 53.809 53.3788 53.8166 54.0455C53.809 54.7197 53.9605 55.3144 54.2711 55.8295C54.5893 56.3371 55.0249 56.7386 55.578 57.0341C56.1386 57.322 56.7787 57.4659 57.4984 57.4659ZM78.7078 47.7273V71H74.4919V51.8295H74.3556L68.9124 55.3068V51.4432L74.6965 47.7273H78.7078ZM83.5565 66.6818V63.3295L93.4315 47.7273H96.2269V52.5H94.5224L87.8747 63.0341V63.2159H101.659V66.6818H83.5565ZM94.6587 71V65.6591L94.7042 64.1591V47.7273H98.6815V71H94.6587Z" fill="white"/>
<rect x="258" y="187" width="57" height="34" rx="17" fill="white" fill-opacity="0.1"/>
<path d="M269.054 209V208.105L272.415 204.426C272.809 203.995 273.134 203.621 273.389 203.303C273.644 202.981 273.833 202.679 273.956 202.398C274.082 202.113 274.145 201.814 274.145 201.503C274.145 201.145 274.059 200.835 273.886 200.573C273.717 200.311 273.485 200.109 273.19 199.967C272.895 199.824 272.564 199.753 272.196 199.753C271.805 199.753 271.464 199.834 271.172 199.996C270.884 200.156 270.66 200.379 270.501 200.668C270.345 200.956 270.267 201.294 270.267 201.682H269.094C269.094 201.085 269.231 200.562 269.506 200.111C269.781 199.66 270.156 199.309 270.63 199.057C271.107 198.805 271.643 198.679 272.236 198.679C272.832 198.679 273.361 198.805 273.822 199.057C274.282 199.309 274.644 199.648 274.906 200.076C275.167 200.504 275.298 200.979 275.298 201.503C275.298 201.877 275.23 202.244 275.094 202.602C274.962 202.956 274.73 203.352 274.398 203.79C274.07 204.224 273.615 204.754 273.031 205.381L270.744 207.827V207.906H275.477V209H269.054ZM279.3 207.608L279.221 208.145C279.165 208.523 279.078 208.927 278.962 209.358C278.85 209.789 278.732 210.195 278.609 210.576C278.487 210.957 278.386 211.26 278.306 211.486H277.411C277.454 211.274 277.511 210.994 277.58 210.646C277.65 210.298 277.719 209.908 277.789 209.477C277.862 209.05 277.922 208.612 277.968 208.165L278.028 207.608H279.3ZM284.401 209.139C283.719 209.139 283.115 209.018 282.592 208.776C282.071 208.531 281.665 208.195 281.374 207.767C281.082 207.336 280.938 206.846 280.941 206.295C280.938 205.865 281.022 205.467 281.195 205.102C281.367 204.734 281.602 204.428 281.901 204.183C282.202 203.934 282.539 203.777 282.91 203.71V203.651C282.423 203.525 282.035 203.251 281.746 202.83C281.458 202.406 281.316 201.924 281.319 201.384C281.316 200.866 281.446 200.404 281.712 199.996C281.977 199.589 282.341 199.267 282.805 199.032C283.273 198.797 283.805 198.679 284.401 198.679C284.991 198.679 285.518 198.797 285.982 199.032C286.446 199.267 286.811 199.589 287.076 199.996C287.344 200.404 287.48 200.866 287.484 201.384C287.48 201.924 287.333 202.406 287.041 202.83C286.753 203.251 286.37 203.525 285.893 203.651V203.71C286.261 203.777 286.592 203.934 286.887 204.183C287.182 204.428 287.417 204.734 287.593 205.102C287.769 205.467 287.858 205.865 287.862 206.295C287.858 206.846 287.709 207.336 287.414 207.767C287.122 208.195 286.716 208.531 286.196 208.776C285.679 209.018 285.081 209.139 284.401 209.139ZM284.401 208.045C284.862 208.045 285.26 207.971 285.594 207.822C285.929 207.673 286.188 207.462 286.37 207.19C286.552 206.919 286.645 206.6 286.648 206.236C286.645 205.851 286.546 205.512 286.35 205.217C286.155 204.922 285.888 204.69 285.55 204.521C285.215 204.352 284.832 204.267 284.401 204.267C283.967 204.267 283.579 204.352 283.238 204.521C282.9 204.69 282.633 204.922 282.438 205.217C282.245 205.512 282.151 205.851 282.154 206.236C282.151 206.6 282.239 206.919 282.418 207.19C282.6 207.462 282.86 207.673 283.198 207.822C283.536 207.971 283.937 208.045 284.401 208.045ZM284.401 203.213C284.766 203.213 285.089 203.14 285.371 202.994C285.656 202.848 285.879 202.645 286.042 202.383C286.204 202.121 286.287 201.814 286.29 201.463C286.287 201.118 286.206 200.818 286.047 200.563C285.888 200.305 285.667 200.106 285.386 199.967C285.104 199.824 284.776 199.753 284.401 199.753C284.02 199.753 283.687 199.824 283.402 199.967C283.117 200.106 282.897 200.305 282.741 200.563C282.585 200.818 282.509 201.118 282.512 201.463C282.509 201.814 282.587 202.121 282.746 202.383C282.908 202.645 283.132 202.848 283.417 202.994C283.702 203.14 284.03 203.213 284.401 203.213ZM293.346 198.818V209H292.113V200.111H292.054L289.568 201.761V200.509L292.113 198.818H293.346ZM296.036 206.912V205.898L300.51 198.818H301.246V200.389H300.749L297.368 205.739V205.818H303.394V206.912H296.036ZM300.829 209V206.604V206.131V198.818H302.002V209H300.829Z" fill="#A1F200"/>
<path d="M20 127C20 118.163 27.1634 111 36 111H60C68.8366 111 76 118.163 76 127C76 135.837 68.8366 143 60 143H36C27.1634 143 20 135.837 20 127Z" fill="white" fill-opacity="0.1"/>
<path fill-rule="evenodd" clip-rule="evenodd" d="M38.48 126.602L41.5928 129.715L40.9144 130.394L37.52 127V122.2H38.48V126.602ZM38 135C33.5816 135 30 131.418 30 127C30 122.582 33.5816 119 38 119C42.4184 119 46 122.582 46 127C46 131.418 42.4184 135 38 135ZM38 134.04C39.8671 134.04 41.6578 133.298 42.978 131.978C44.2983 130.658 45.04 128.867 45.04 127C45.04 125.133 44.2983 123.342 42.978 122.022C41.6578 120.702 39.8671 119.96 38 119.96C36.1329 119.96 34.3422 120.702 33.022 122.022C31.7017 123.342 30.96 125.133 30.96 127C30.96 128.867 31.7017 130.658 33.022 131.978C34.3422 133.298 36.1329 134.04 38 134.04Z" fill="white"/>
<path d="M56.6335 121.818V132H55.4006V123.111H55.3409L52.8551 124.761V123.509L55.4006 121.818H56.6335ZM64.9908 126.074L63.9368 126.372C63.8705 126.196 63.7727 126.026 63.6435 125.86C63.5175 125.691 63.3452 125.552 63.1264 125.442C62.9077 125.333 62.6276 125.278 62.2862 125.278C61.8189 125.278 61.4295 125.386 61.1179 125.602C60.8097 125.814 60.6555 126.084 60.6555 126.412C60.6555 126.704 60.7616 126.934 60.9737 127.103C61.1858 127.272 61.5173 127.413 61.968 127.526L63.1016 127.804C63.7843 127.97 64.2931 128.223 64.6278 128.565C64.9626 128.903 65.13 129.339 65.13 129.872C65.13 130.31 65.004 130.701 64.7521 131.045C64.5036 131.39 64.1555 131.662 63.7081 131.861C63.2607 132.06 62.7403 132.159 62.147 132.159C61.3681 132.159 60.7235 131.99 60.2131 131.652C59.7027 131.314 59.3795 130.82 59.2436 130.17L60.3572 129.892C60.4633 130.303 60.6638 130.611 60.9588 130.817C61.2571 131.022 61.6465 131.125 62.1271 131.125C62.674 131.125 63.1082 131.009 63.4297 130.777C63.7545 130.542 63.9169 130.26 63.9169 129.932C63.9169 129.667 63.8241 129.445 63.6385 129.266C63.4529 129.083 63.1679 128.947 62.7834 128.858L61.5107 128.56C60.8113 128.394 60.2976 128.137 59.9695 127.789C59.6446 127.438 59.4822 126.999 59.4822 126.472C59.4822 126.041 59.6032 125.66 59.8452 125.328C60.0904 124.997 60.4235 124.737 60.8445 124.548C61.2687 124.359 61.7493 124.264 62.2862 124.264C63.0419 124.264 63.6352 124.43 64.0661 124.761C64.5002 125.093 64.8085 125.53 64.9908 126.074Z" fill="white"/>
<line x1="207.5" y1="105" x2="207.5" y2="308" stroke="white" stroke-opacity="0.4" stroke-dasharray="4 4"/>
<line x1="4.37114e-08" y1="248.5" x2="315" y2="248.5" stroke="white" stroke-opacity="0.4" stroke-dasharray="4 4"/>
<rect x="284" y="253" width="31" height="14" rx="7" fill="white"/>
<path d="M290.979 256.955V263.5H290.186V257.786H290.148L288.55 258.847V258.041L290.186 256.955H290.979ZM293.612 262.605L293.561 262.95C293.525 263.193 293.469 263.453 293.395 263.73C293.322 264.007 293.247 264.268 293.168 264.513C293.089 264.758 293.024 264.953 292.973 265.098H292.398C292.425 264.962 292.462 264.782 292.506 264.558C292.551 264.334 292.596 264.084 292.641 263.807C292.688 263.532 292.726 263.251 292.756 262.963L292.794 262.605H293.612ZM295.07 263.5L297.997 257.709V257.658H294.622V256.955H298.815V257.696L295.901 263.5H295.07ZM301.964 263.589C301.589 263.589 301.252 263.515 300.951 263.366C300.651 263.217 300.41 263.012 300.229 262.752C300.048 262.492 299.949 262.196 299.932 261.864H300.699C300.728 262.16 300.863 262.405 301.101 262.599C301.342 262.79 301.63 262.886 301.964 262.886C302.233 262.886 302.471 262.824 302.68 262.698C302.891 262.572 303.056 262.4 303.176 262.18C303.297 261.958 303.358 261.708 303.358 261.429C303.358 261.143 303.295 260.889 303.169 260.665C303.046 260.439 302.875 260.261 302.658 260.131C302.44 260.001 302.192 259.935 301.913 259.933C301.713 259.931 301.507 259.962 301.296 260.026C301.085 260.088 300.912 260.168 300.775 260.266L300.034 260.176L300.43 256.955H303.831V257.658H301.095L300.865 259.588H300.903C301.037 259.482 301.206 259.393 301.408 259.323C301.611 259.252 301.821 259.217 302.041 259.217C302.441 259.217 302.798 259.313 303.112 259.505C303.427 259.695 303.674 259.955 303.853 260.285C304.034 260.615 304.125 260.992 304.125 261.416C304.125 261.834 304.031 262.207 303.843 262.535C303.658 262.861 303.402 263.119 303.076 263.308C302.75 263.496 302.38 263.589 301.964 263.589ZM305.394 263.5V262.925L307.555 260.56C307.808 260.283 308.017 260.042 308.181 259.837C308.345 259.631 308.467 259.437 308.546 259.256C308.627 259.072 308.667 258.881 308.667 258.68C308.667 258.45 308.612 258.251 308.501 258.083C308.392 257.914 308.243 257.784 308.053 257.693C307.864 257.601 307.651 257.555 307.414 257.555C307.163 257.555 306.943 257.608 306.756 257.712C306.57 257.814 306.427 257.958 306.324 258.143C306.224 258.329 306.174 258.546 306.174 258.795H305.42C305.42 258.412 305.508 258.075 305.685 257.786C305.862 257.496 306.103 257.27 306.407 257.108C306.714 256.946 307.058 256.865 307.44 256.865C307.823 256.865 308.163 256.946 308.459 257.108C308.756 257.27 308.988 257.488 309.156 257.763C309.324 258.038 309.409 258.344 309.409 258.68C309.409 258.921 309.365 259.157 309.278 259.387C309.192 259.615 309.043 259.869 308.83 260.151C308.619 260.43 308.326 260.771 307.951 261.173L306.481 262.746V262.797H309.524V263.5H305.394Z" fill="black"/>
<g filter="url(#filter0_f_440_1417)">
<path d="M-6.02293 248.24L-58 207.619V304H252V204.5L208.865 247.15C208.102 247.904 206.88 247.922 206.095 247.191L148.26 193.284C147.486 192.563 146.285 192.569 145.518 193.298L97.6491 238.82C97.1295 239.314 96.3762 239.489 95.6876 239.288C48.6734 225.622 10.7691 239.121 -3.65042 248.337C-4.38563 248.807 -5.33545 248.778 -6.02293 248.24Z" fill="url(#paint0_linear_440_1417)"/>
</g>
<path d="M-6.02293 248.24L-58 207.619V304H252V204.5L208.865 247.15C208.102 247.904 206.88 247.922 206.095 247.191L148.26 193.284C147.486 192.563 146.285 192.569 145.518 193.298L97.6491 238.82C97.1295 239.314 96.3762 239.489 95.6876 239.288C48.6734 225.622 10.7691 239.121 -3.65042 248.337C-4.38563 248.807 -5.33545 248.778 -6.02293 248.24Z" fill="url(#paint1_linear_440_1417)"/>
<path d="M-58 207.58L-6.02114 248.101C-5.33439 248.636 -4.38688 248.666 -3.65265 248.198C10.7655 239.005 48.6722 225.537 95.6899 239.171C96.3773 239.37 97.129 239.196 97.6482 238.704L145.518 193.294C146.285 192.567 147.485 192.562 148.259 193.282L206.088 247.183C206.876 247.918 208.104 247.896 208.865 247.135L252 204" stroke="#A1F200"/>
<path d="M23.1515 313.455V320H22.3589V314.286H22.3206L20.7226 315.347V314.541L22.3589 313.455H23.1515ZM27.1689 320.089C26.6874 320.089 26.2773 319.958 25.9385 319.696C25.5997 319.432 25.3408 319.05 25.1618 318.549C24.9829 318.046 24.8934 317.439 24.8934 316.727C24.8934 316.02 24.9829 315.416 25.1618 314.915C25.343 314.412 25.6029 314.029 25.9417 313.765C26.2826 313.498 26.6917 313.365 27.1689 313.365C27.6462 313.365 28.0542 313.498 28.393 313.765C28.7339 314.029 28.9939 314.412 29.1729 314.915C29.354 315.416 29.4445 316.02 29.4445 316.727C29.4445 317.439 29.355 318.046 29.176 318.549C28.9971 319.05 28.7382 319.432 28.3994 319.696C28.0606 319.958 27.6505 320.089 27.1689 320.089ZM27.1689 319.386C27.6462 319.386 28.017 319.156 28.2812 318.696C28.5454 318.236 28.6775 317.58 28.6775 316.727C28.6775 316.161 28.6167 315.678 28.4953 315.279C28.376 314.881 28.2034 314.577 27.9775 314.369C27.7538 314.16 27.4843 314.055 27.1689 314.055C26.6959 314.055 26.3263 314.289 26.0599 314.755C25.7936 315.22 25.6604 315.877 25.6604 316.727C25.6604 317.294 25.7201 317.776 25.8394 318.172C25.9587 318.568 26.1302 318.87 26.354 319.076C26.5798 319.283 26.8515 319.386 27.1689 319.386ZM31.2215 319.163C31.0638 319.163 30.9285 319.106 30.8156 318.993C30.7027 318.88 30.6462 318.745 30.6462 318.587C30.6462 318.43 30.7027 318.294 30.8156 318.181C30.9285 318.069 31.0638 318.012 31.2215 318.012C31.3792 318.012 31.5145 318.069 31.6274 318.181C31.7403 318.294 31.7968 318.43 31.7968 318.587C31.7968 318.692 31.7702 318.788 31.7169 318.875C31.6657 318.962 31.5965 319.033 31.5091 319.086C31.4239 319.137 31.328 319.163 31.2215 319.163ZM31.2215 315.852C31.0638 315.852 30.9285 315.795 30.8156 315.682C30.7027 315.569 30.6462 315.434 30.6462 315.276C30.6462 315.119 30.7027 314.983 30.8156 314.87C30.9285 314.757 31.0638 314.701 31.2215 314.701C31.3792 314.701 31.5145 314.757 31.6274 314.87C31.7403 314.983 31.7968 315.119 31.7968 315.276C31.7968 315.381 31.7702 315.477 31.7169 315.564C31.6657 315.651 31.5965 315.722 31.5091 315.775C31.4239 315.826 31.328 315.852 31.2215 315.852ZM35.4387 313.455V320H34.646V314.286H34.6077L33.0097 315.347V314.541L34.646 313.455H35.4387ZM39.6222 313.455V320H38.8296V314.286H38.7913L37.1933 315.347V314.541L38.8296 313.455H39.6222Z" fill="white" fill-opacity="0.3"/>
<path d="M65.8759 313.455V320H65.0833V314.286H65.0449L63.4469 315.347V314.541L65.0833 313.455H65.8759ZM69.8933 320.089C69.4118 320.089 69.0016 319.958 68.6628 319.696C68.3241 319.432 68.0652 319.05 67.8862 318.549C67.7072 318.046 67.6177 317.439 67.6177 316.727C67.6177 316.02 67.7072 315.416 67.8862 314.915C68.0673 314.412 68.3273 314.029 68.666 313.765C69.0069 313.498 69.416 313.365 69.8933 313.365C70.3706 313.365 70.7786 313.498 71.1174 313.765C71.4583 314.029 71.7182 314.412 71.8972 314.915C72.0783 315.416 72.1689 316.02 72.1689 316.727C72.1689 317.439 72.0794 318.046 71.9004 318.549C71.7214 319.05 71.4626 319.432 71.1238 319.696C70.785 319.958 70.3748 320.089 69.8933 320.089ZM69.8933 319.386C70.3706 319.386 70.7413 319.156 71.0055 318.696C71.2697 318.236 71.4018 317.58 71.4018 316.727C71.4018 316.161 71.3411 315.678 71.2197 315.279C71.1003 314.881 70.9278 314.577 70.7019 314.369C70.4782 314.16 70.2087 314.055 69.8933 314.055C69.4203 314.055 69.0506 314.289 68.7843 314.755C68.518 315.22 68.3848 315.877 68.3848 316.727C68.3848 317.294 68.4444 317.776 68.5638 318.172C68.6831 318.568 68.8546 318.87 69.0783 319.076C69.3042 319.283 69.5758 319.386 69.8933 319.386ZM73.9459 319.163C73.7882 319.163 73.6529 319.106 73.54 318.993C73.427 318.88 73.3706 318.745 73.3706 318.587C73.3706 318.43 73.427 318.294 73.54 318.181C73.6529 318.069 73.7882 318.012 73.9459 318.012C74.1035 318.012 74.2388 318.069 74.3518 318.181C74.4647 318.294 74.5212 318.43 74.5212 318.587C74.5212 318.692 74.4945 318.788 74.4413 318.875C74.3901 318.962 74.3209 319.033 74.2335 319.086C74.1483 319.137 74.0524 319.163 73.9459 319.163ZM73.9459 315.852C73.7882 315.852 73.6529 315.795 73.54 315.682C73.427 315.569 73.3706 315.434 73.3706 315.276C73.3706 315.119 73.427 314.983 73.54 314.87C73.6529 314.757 73.7882 314.701 73.9459 314.701C74.1035 314.701 74.2388 314.757 74.3518 314.87C74.4647 314.983 74.5212 315.119 74.5212 315.276C74.5212 315.381 74.4945 315.477 74.4413 315.564C74.3901 315.651 74.3209 315.722 74.2335 315.775C74.1483 315.826 74.0524 315.852 73.9459 315.852ZM78.163 313.455V320H77.3704V314.286H77.3321L75.734 315.347V314.541L77.3704 313.455H78.163ZM80.0455 320V319.425L82.206 317.06C82.4595 316.783 82.6683 316.542 82.8324 316.337C82.9965 316.131 83.1179 315.937 83.1968 315.756C83.2777 315.572 83.3182 315.381 83.3182 315.18C83.3182 314.95 83.2628 314.751 83.152 314.583C83.0433 314.414 82.8942 314.284 82.7046 314.193C82.5149 314.101 82.3019 314.055 82.0654 314.055C81.8139 314.055 81.5945 314.108 81.407 314.212C81.2216 314.314 81.0778 314.458 80.9755 314.643C80.8754 314.829 80.8253 315.046 80.8253 315.295H80.071C80.071 314.912 80.1595 314.575 80.3363 314.286C80.5132 313.996 80.7539 313.77 81.0586 313.608C81.3654 313.446 81.7095 313.365 82.0909 313.365C82.4745 313.365 82.8143 313.446 83.1105 313.608C83.4066 313.77 83.6389 313.988 83.8072 314.263C83.9755 314.538 84.0597 314.844 84.0597 315.18C84.0597 315.421 84.016 315.657 83.9286 315.887C83.8434 316.115 83.6943 316.369 83.4812 316.651C83.2703 316.93 82.9773 317.271 82.6023 317.673L81.1321 319.246V319.297H84.1747V320H80.0455Z" fill="white" fill-opacity="0.3"/>
<path d="M110.092 313.455V320H109.3V314.286H109.261L107.663 315.347V314.541L109.3 313.455H110.092ZM114.11 320.089C113.628 320.089 113.218 319.958 112.879 319.696C112.541 319.432 112.282 319.05 112.103 318.549C111.924 318.046 111.834 317.439 111.834 316.727C111.834 316.02 111.924 315.416 112.103 314.915C112.284 314.412 112.544 314.029 112.883 313.765C113.223 313.498 113.633 313.365 114.11 313.365C114.587 313.365 114.995 313.498 115.334 313.765C115.675 314.029 115.935 314.412 116.114 314.915C116.295 315.416 116.385 316.02 116.385 316.727C116.385 317.439 116.296 318.046 116.117 318.549C115.938 319.05 115.679 319.432 115.34 319.696C115.002 319.958 114.591 320.089 114.11 320.089ZM114.11 319.386C114.587 319.386 114.958 319.156 115.222 318.696C115.486 318.236 115.618 317.58 115.618 316.727C115.618 316.161 115.558 315.678 115.436 315.279C115.317 314.881 115.144 314.577 114.918 314.369C114.695 314.16 114.425 314.055 114.11 314.055C113.637 314.055 113.267 314.289 113.001 314.755C112.735 315.22 112.601 315.877 112.601 316.727C112.601 317.294 112.661 317.776 112.78 318.172C112.9 318.568 113.071 318.87 113.295 319.076C113.521 319.283 113.792 319.386 114.11 319.386ZM118.162 319.163C118.005 319.163 117.869 319.106 117.757 318.993C117.644 318.88 117.587 318.745 117.587 318.587C117.587 318.43 117.644 318.294 117.757 318.181C117.869 318.069 118.005 318.012 118.162 318.012C118.32 318.012 118.455 318.069 118.568 318.181C118.681 318.294 118.738 318.43 118.738 318.587C118.738 318.692 118.711 318.788 118.658 318.875C118.607 318.962 118.537 319.033 118.45 319.086C118.365 319.137 118.269 319.163 118.162 319.163ZM118.162 315.852C118.005 315.852 117.869 315.795 117.757 315.682C117.644 315.569 117.587 315.434 117.587 315.276C117.587 315.119 117.644 314.983 117.757 314.87C117.869 314.757 118.005 314.701 118.162 314.701C118.32 314.701 118.455 314.757 118.568 314.87C118.681 314.983 118.738 315.119 118.738 315.276C118.738 315.381 118.711 315.477 118.658 315.564C118.607 315.651 118.537 315.722 118.45 315.775C118.365 315.826 118.269 315.852 118.162 315.852ZM122.38 313.455V320H121.587V314.286H121.549L119.951 315.347V314.541L121.587 313.455H122.38ZM126.474 320.089C126.052 320.089 125.676 320.017 125.345 319.872C125.017 319.727 124.756 319.526 124.562 319.268C124.371 319.008 124.266 318.707 124.249 318.364H125.055C125.072 318.575 125.144 318.757 125.272 318.91C125.4 319.061 125.567 319.179 125.774 319.262C125.98 319.345 126.209 319.386 126.461 319.386C126.742 319.386 126.991 319.337 127.209 319.239C127.426 319.141 127.597 319.005 127.72 318.83C127.844 318.656 127.905 318.453 127.905 318.223C127.905 317.982 127.846 317.77 127.727 317.587C127.607 317.402 127.432 317.257 127.202 317.152C126.972 317.048 126.691 316.996 126.359 316.996H125.834V316.293H126.359C126.619 316.293 126.847 316.246 127.043 316.152C127.241 316.058 127.395 315.926 127.506 315.756C127.619 315.585 127.675 315.385 127.675 315.155C127.675 314.933 127.626 314.74 127.528 314.576C127.43 314.412 127.292 314.284 127.113 314.193C126.936 314.101 126.727 314.055 126.486 314.055C126.261 314.055 126.048 314.097 125.847 314.18C125.649 314.261 125.487 314.379 125.361 314.535C125.236 314.688 125.168 314.874 125.157 315.091H124.39C124.403 314.748 124.506 314.447 124.7 314.19C124.894 313.93 125.147 313.727 125.461 313.582C125.776 313.437 126.122 313.365 126.499 313.365C126.904 313.365 127.251 313.447 127.541 313.611C127.831 313.773 128.054 313.987 128.209 314.254C128.365 314.52 128.442 314.808 128.442 315.116C128.442 315.485 128.345 315.799 128.152 316.059C127.96 316.319 127.699 316.499 127.369 316.599V316.651C127.782 316.719 128.105 316.895 128.337 317.178C128.569 317.459 128.685 317.808 128.685 318.223C128.685 318.579 128.588 318.898 128.394 319.182C128.203 319.463 127.941 319.685 127.608 319.847C127.276 320.009 126.898 320.089 126.474 320.089Z" fill="white" fill-opacity="0.3"/>
<path d="M154.928 313.455V320H154.135V314.286H154.097L152.499 315.347V314.541L154.135 313.455H154.928ZM158.945 320.089C158.464 320.089 158.053 319.958 157.715 319.696C157.376 319.432 157.117 319.05 156.938 318.549C156.759 318.046 156.67 317.439 156.67 316.727C156.67 316.02 156.759 315.416 156.938 314.915C157.119 314.412 157.379 314.029 157.718 313.765C158.059 313.498 158.468 313.365 158.945 313.365C159.422 313.365 159.83 313.498 160.169 313.765C160.51 314.029 160.77 314.412 160.949 314.915C161.13 315.416 161.221 316.02 161.221 316.727C161.221 317.439 161.131 318.046 160.952 318.549C160.773 319.05 160.514 319.432 160.176 319.696C159.837 319.958 159.427 320.089 158.945 320.089ZM158.945 319.386C159.422 319.386 159.793 319.156 160.057 318.696C160.321 318.236 160.454 317.58 160.454 316.727C160.454 316.161 160.393 315.678 160.271 315.279C160.152 314.881 159.98 314.577 159.754 314.369C159.53 314.16 159.26 314.055 158.945 314.055C158.472 314.055 158.102 314.289 157.836 314.755C157.57 315.22 157.437 315.877 157.437 316.727C157.437 317.294 157.496 317.776 157.616 318.172C157.735 318.568 157.906 318.87 158.13 319.076C158.356 319.283 158.628 319.386 158.945 319.386ZM162.998 319.163C162.84 319.163 162.705 319.106 162.592 318.993C162.479 318.88 162.422 318.745 162.422 318.587C162.422 318.43 162.479 318.294 162.592 318.181C162.705 318.069 162.84 318.012 162.998 318.012C163.155 318.012 163.291 318.069 163.404 318.181C163.516 318.294 163.573 318.43 163.573 318.587C163.573 318.692 163.546 318.788 163.493 318.875C163.442 318.962 163.373 319.033 163.285 319.086C163.2 319.137 163.104 319.163 162.998 319.163ZM162.998 315.852C162.84 315.852 162.705 315.795 162.592 315.682C162.479 315.569 162.422 315.434 162.422 315.276C162.422 315.119 162.479 314.983 162.592 314.87C162.705 314.757 162.84 314.701 162.998 314.701C163.155 314.701 163.291 314.757 163.404 314.87C163.516 314.983 163.573 315.119 163.573 315.276C163.573 315.381 163.546 315.477 163.493 315.564C163.442 315.651 163.373 315.722 163.285 315.775C163.2 315.826 163.104 315.852 162.998 315.852ZM167.215 313.455V320H166.422V314.286H166.384L164.786 315.347V314.541L166.422 313.455H167.215ZM168.944 318.658V318.006L171.82 313.455H172.293V314.464H171.974L169.8 317.903V317.955H173.674V318.658H168.944ZM172.025 320V318.46V318.156V313.455H172.779V320H172.025Z" fill="white" fill-opacity="0.3"/>
<path d="M199.434 313.455V320H198.641V314.286H198.603L197.005 315.347V314.541L198.641 313.455H199.434ZM203.451 320.089C202.97 320.089 202.56 319.958 202.221 319.696C201.882 319.432 201.623 319.05 201.444 318.549C201.265 318.046 201.176 317.439 201.176 316.727C201.176 316.02 201.265 315.416 201.444 314.915C201.625 314.412 201.885 314.029 202.224 313.765C202.565 313.498 202.974 313.365 203.451 313.365C203.929 313.365 204.337 313.498 204.675 313.765C205.016 314.029 205.276 314.412 205.455 314.915C205.636 315.416 205.727 316.02 205.727 316.727C205.727 317.439 205.637 318.046 205.459 318.549C205.28 319.05 205.021 319.432 204.682 319.696C204.343 319.958 203.933 320.089 203.451 320.089ZM203.451 319.386C203.929 319.386 204.299 319.156 204.564 318.696C204.828 318.236 204.96 317.58 204.96 316.727C204.96 316.161 204.899 315.678 204.778 315.279C204.658 314.881 204.486 314.577 204.26 314.369C204.036 314.16 203.767 314.055 203.451 314.055C202.978 314.055 202.609 314.289 202.342 314.755C202.076 315.22 201.943 315.877 201.943 316.727C201.943 317.294 202.003 317.776 202.122 318.172C202.241 318.568 202.413 318.87 202.636 319.076C202.862 319.283 203.134 319.386 203.451 319.386ZM207.504 319.163C207.346 319.163 207.211 319.106 207.098 318.993C206.985 318.88 206.929 318.745 206.929 318.587C206.929 318.43 206.985 318.294 207.098 318.181C207.211 318.069 207.346 318.012 207.504 318.012C207.662 318.012 207.797 318.069 207.91 318.181C208.023 318.294 208.079 318.43 208.079 318.587C208.079 318.692 208.053 318.788 207.999 318.875C207.948 318.962 207.879 319.033 207.792 319.086C207.706 319.137 207.611 319.163 207.504 319.163ZM207.504 315.852C207.346 315.852 207.211 315.795 207.098 315.682C206.985 315.569 206.929 315.434 206.929 315.276C206.929 315.119 206.985 314.983 207.098 314.87C207.211 314.757 207.346 314.701 207.504 314.701C207.662 314.701 207.797 314.757 207.91 314.87C208.023 314.983 208.079 315.119 208.079 315.276C208.079 315.381 208.053 315.477 207.999 315.564C207.948 315.651 207.879 315.722 207.792 315.775C207.706 315.826 207.611 315.852 207.504 315.852ZM211.721 313.455V320H210.929V314.286H210.89L209.292 315.347V314.541L210.929 313.455H211.721ZM215.649 320.089C215.274 320.089 214.936 320.015 214.636 319.866C214.335 319.717 214.095 319.512 213.914 319.252C213.732 318.992 213.633 318.696 213.616 318.364H214.383C214.413 318.66 214.547 318.905 214.786 319.099C215.027 319.29 215.315 319.386 215.649 319.386C215.918 319.386 216.156 319.324 216.365 319.198C216.576 319.072 216.741 318.9 216.86 318.68C216.982 318.458 217.043 318.208 217.043 317.929C217.043 317.643 216.98 317.389 216.854 317.165C216.73 316.939 216.56 316.761 216.343 316.631C216.125 316.501 215.877 316.435 215.598 316.433C215.398 316.431 215.192 316.462 214.981 316.526C214.77 316.588 214.596 316.668 214.46 316.766L213.719 316.676L214.115 313.455H217.516V314.158H214.78L214.55 316.088H214.588C214.722 315.982 214.891 315.893 215.093 315.823C215.295 315.752 215.506 315.717 215.726 315.717C216.126 315.717 216.483 315.813 216.796 316.005C217.112 316.195 217.359 316.455 217.538 316.785C217.719 317.115 217.81 317.492 217.81 317.916C217.81 318.334 217.716 318.707 217.528 319.035C217.343 319.361 217.087 319.619 216.761 319.808C216.435 319.996 216.065 320.089 215.649 320.089Z" fill="#A1F200"/>
<path d="M243.721 313.455V320H242.928V314.286H242.89L241.292 315.347V314.541L242.928 313.455H243.721ZM247.738 320.089C247.257 320.089 246.847 319.958 246.508 319.696C246.169 319.432 245.91 319.05 245.731 318.549C245.552 318.046 245.463 317.439 245.463 316.727C245.463 316.02 245.552 315.416 245.731 314.915C245.912 314.412 246.172 314.029 246.511 313.765C246.852 313.498 247.261 313.365 247.738 313.365C248.216 313.365 248.624 313.498 248.962 313.765C249.303 314.029 249.563 314.412 249.742 314.915C249.923 315.416 250.014 316.02 250.014 316.727C250.014 317.439 249.924 318.046 249.745 318.549C249.566 319.05 249.308 319.432 248.969 319.696C248.63 319.958 248.22 320.089 247.738 320.089ZM247.738 319.386C248.216 319.386 248.586 319.156 248.85 318.696C249.115 318.236 249.247 317.58 249.247 316.727C249.247 316.161 249.186 315.678 249.065 315.279C248.945 314.881 248.773 314.577 248.547 314.369C248.323 314.16 248.054 314.055 247.738 314.055C247.265 314.055 246.896 314.289 246.629 314.755C246.363 315.22 246.23 315.877 246.23 316.727C246.23 317.294 246.289 317.776 246.409 318.172C246.528 318.568 246.7 318.87 246.923 319.076C247.149 319.283 247.421 319.386 247.738 319.386ZM251.791 319.163C251.633 319.163 251.498 319.106 251.385 318.993C251.272 318.88 251.216 318.745 251.216 318.587C251.216 318.43 251.272 318.294 251.385 318.181C251.498 318.069 251.633 318.012 251.791 318.012C251.949 318.012 252.084 318.069 252.197 318.181C252.31 318.294 252.366 318.43 252.366 318.587C252.366 318.692 252.339 318.788 252.286 318.875C252.235 318.962 252.166 319.033 252.078 319.086C251.993 319.137 251.897 319.163 251.791 319.163ZM251.791 315.852C251.633 315.852 251.498 315.795 251.385 315.682C251.272 315.569 251.216 315.434 251.216 315.276C251.216 315.119 251.272 314.983 251.385 314.87C251.498 314.757 251.633 314.701 251.791 314.701C251.949 314.701 252.084 314.757 252.197 314.87C252.31 314.983 252.366 315.119 252.366 315.276C252.366 315.381 252.339 315.477 252.286 315.564C252.235 315.651 252.166 315.722 252.078 315.775C251.993 315.826 251.897 315.852 251.791 315.852ZM256.008 313.455V320H255.215V314.286H255.177L253.579 315.347V314.541L255.215 313.455H256.008ZM260.064 320.089C259.795 320.085 259.527 320.034 259.258 319.936C258.99 319.838 258.745 319.673 258.523 319.441C258.302 319.206 258.124 318.89 257.99 318.491C257.855 318.091 257.788 317.588 257.788 316.983C257.788 316.403 257.843 315.89 257.951 315.442C258.06 314.993 258.218 314.615 258.424 314.308C258.631 313.999 258.88 313.765 259.172 313.605C259.466 313.445 259.797 313.365 260.166 313.365C260.532 313.365 260.858 313.439 261.144 313.586C261.432 313.73 261.666 313.933 261.847 314.193C262.028 314.453 262.145 314.752 262.199 315.091H261.419C261.346 314.797 261.206 314.553 260.997 314.359C260.788 314.165 260.511 314.068 260.166 314.068C259.659 314.068 259.259 314.289 258.968 314.73C258.678 315.171 258.532 315.79 258.53 316.587H258.581C258.7 316.406 258.842 316.251 259.006 316.123C259.172 315.993 259.355 315.893 259.556 315.823C259.756 315.752 259.968 315.717 260.192 315.717C260.567 315.717 260.91 315.811 261.221 315.999C261.532 316.184 261.781 316.441 261.969 316.769C262.156 317.095 262.25 317.469 262.25 317.891C262.25 318.295 262.159 318.666 261.978 319.003C261.797 319.337 261.542 319.604 261.214 319.802C260.888 319.998 260.505 320.094 260.064 320.089ZM260.064 319.386C260.332 319.386 260.573 319.319 260.786 319.185C261.001 319.051 261.171 318.871 261.294 318.645C261.42 318.419 261.483 318.168 261.483 317.891C261.483 317.62 261.422 317.374 261.301 317.152C261.181 316.929 261.016 316.751 260.805 316.619C260.596 316.487 260.358 316.42 260.089 316.42C259.887 316.42 259.698 316.461 259.524 316.542C259.349 316.621 259.195 316.729 259.063 316.868C258.933 317.006 258.831 317.165 258.757 317.344C258.682 317.521 258.645 317.707 258.645 317.903C258.645 318.163 258.705 318.406 258.827 318.632C258.95 318.858 259.119 319.04 259.332 319.179C259.547 319.317 259.791 319.386 260.064 319.386Z" fill="white" fill-opacity="0.3"/>
<path d="M288.815 313.455V320H288.023V314.286H287.984L286.386 315.347V314.541L288.023 313.455H288.815ZM292.833 320.089C292.351 320.089 291.941 319.958 291.602 319.696C291.264 319.432 291.005 319.05 290.826 318.549C290.647 318.046 290.557 317.439 290.557 316.727C290.557 316.02 290.647 315.416 290.826 314.915C291.007 314.412 291.267 314.029 291.605 313.765C291.946 313.498 292.355 313.365 292.833 313.365C293.31 313.365 293.718 313.498 294.057 313.765C294.398 314.029 294.658 314.412 294.837 314.915C295.018 315.416 295.108 316.02 295.108 316.727C295.108 317.439 295.019 318.046 294.84 318.549C294.661 319.05 294.402 319.432 294.063 319.696C293.724 319.958 293.314 320.089 292.833 320.089ZM292.833 319.386C293.31 319.386 293.681 319.156 293.945 318.696C294.209 318.236 294.341 317.58 294.341 316.727C294.341 316.161 294.281 315.678 294.159 315.279C294.04 314.881 293.867 314.577 293.641 314.369C293.418 314.16 293.148 314.055 292.833 314.055C292.36 314.055 291.99 314.289 291.724 314.755C291.457 315.22 291.324 315.877 291.324 316.727C291.324 317.294 291.384 317.776 291.503 318.172C291.623 318.568 291.794 318.87 292.018 319.076C292.244 319.283 292.515 319.386 292.833 319.386ZM296.885 319.163C296.728 319.163 296.592 319.106 296.479 318.993C296.366 318.88 296.31 318.745 296.31 318.587C296.31 318.43 296.366 318.294 296.479 318.181C296.592 318.069 296.728 318.012 296.885 318.012C297.043 318.012 297.178 318.069 297.291 318.181C297.404 318.294 297.461 318.43 297.461 318.587C297.461 318.692 297.434 318.788 297.381 318.875C297.33 318.962 297.26 319.033 297.173 319.086C297.088 319.137 296.992 319.163 296.885 319.163ZM296.885 315.852C296.728 315.852 296.592 315.795 296.479 315.682C296.366 315.569 296.31 315.434 296.31 315.276C296.31 315.119 296.366 314.983 296.479 314.87C296.592 314.757 296.728 314.701 296.885 314.701C297.043 314.701 297.178 314.757 297.291 314.87C297.404 314.983 297.461 315.119 297.461 315.276C297.461 315.381 297.434 315.477 297.381 315.564C297.33 315.651 297.26 315.722 297.173 315.775C297.088 315.826 296.992 315.852 296.885 315.852ZM301.102 313.455V320H300.31V314.286H300.272L298.673 315.347V314.541L300.31 313.455H301.102ZM303.189 320L306.117 314.209V314.158H302.742V313.455H306.935V314.196L304.02 320H303.189Z" fill="white" fill-opacity="0.3"/>
<path d="M333.47 313.455V320H332.678V314.286H332.639L331.041 315.347V314.541L332.678 313.455H333.47ZM337.488 320.089C337.006 320.089 336.596 319.958 336.257 319.696C335.919 319.432 335.66 319.05 335.481 318.549C335.302 318.046 335.212 317.439 335.212 316.727C335.212 316.02 335.302 315.416 335.481 314.915C335.662 314.412 335.922 314.029 336.261 313.765C336.601 313.498 337.011 313.365 337.488 313.365C337.965 313.365 338.373 313.498 338.712 313.765C339.053 314.029 339.313 314.412 339.492 314.915C339.673 315.416 339.763 316.02 339.763 316.727C339.763 317.439 339.674 318.046 339.495 318.549C339.316 319.05 339.057 319.432 338.718 319.696C338.379 319.958 337.969 320.089 337.488 320.089ZM337.488 319.386C337.965 319.386 338.336 319.156 338.6 318.696C338.864 318.236 338.996 317.58 338.996 316.727C338.996 316.161 338.936 315.678 338.814 315.279C338.695 314.881 338.522 314.577 338.296 314.369C338.073 314.16 337.803 314.055 337.488 314.055C337.015 314.055 336.645 314.289 336.379 314.755C336.112 315.22 335.979 315.877 335.979 316.727C335.979 317.294 336.039 317.776 336.158 318.172C336.278 318.568 336.449 318.87 336.673 319.076C336.899 319.283 337.17 319.386 337.488 319.386ZM341.54 319.163C341.383 319.163 341.247 319.106 341.134 318.993C341.022 318.88 340.965 318.745 340.965 318.587C340.965 318.43 341.022 318.294 341.134 318.181C341.247 318.069 341.383 318.012 341.54 318.012C341.698 318.012 341.833 318.069 341.946 318.181C342.059 318.294 342.116 318.43 342.116 318.587C342.116 318.692 342.089 318.788 342.036 318.875C341.985 318.962 341.915 319.033 341.828 319.086C341.743 319.137 341.647 319.163 341.54 319.163ZM341.54 315.852C341.383 315.852 341.247 315.795 341.134 315.682C341.022 315.569 340.965 315.434 340.965 315.276C340.965 315.119 341.022 314.983 341.134 314.87C341.247 314.757 341.383 314.701 341.54 314.701C341.698 314.701 341.833 314.757 341.946 314.87C342.059 314.983 342.116 315.119 342.116 315.276C342.116 315.381 342.089 315.477 342.036 315.564C341.985 315.651 341.915 315.722 341.828 315.775C341.743 315.826 341.647 315.852 341.54 315.852ZM345.758 313.455V320H344.965V314.286H344.927L343.329 315.347V314.541L344.965 313.455H345.758ZM349.737 320.089C349.298 320.089 348.91 320.012 348.573 319.856C348.239 319.699 347.978 319.482 347.79 319.207C347.603 318.93 347.51 318.615 347.512 318.261C347.51 317.984 347.564 317.729 347.675 317.494C347.786 317.258 347.937 317.061 348.129 316.903C348.323 316.743 348.539 316.642 348.778 316.599V316.561C348.465 316.48 348.215 316.304 348.03 316.034C347.845 315.761 347.753 315.451 347.755 315.104C347.753 314.771 347.837 314.474 348.008 314.212C348.178 313.95 348.412 313.743 348.711 313.592C349.011 313.441 349.353 313.365 349.737 313.365C350.116 313.365 350.455 313.441 350.753 313.592C351.051 313.743 351.286 313.95 351.456 314.212C351.629 314.474 351.716 314.771 351.718 315.104C351.716 315.451 351.621 315.761 351.434 316.034C351.248 316.304 351.002 316.48 350.695 316.561V316.599C350.932 316.642 351.145 316.743 351.335 316.903C351.524 317.061 351.675 317.258 351.788 317.494C351.901 317.729 351.959 317.984 351.961 318.261C351.959 318.615 351.863 318.93 351.673 319.207C351.486 319.482 351.225 319.699 350.89 319.856C350.558 320.012 350.173 320.089 349.737 320.089ZM349.737 319.386C350.033 319.386 350.288 319.338 350.504 319.243C350.719 319.147 350.885 319.011 351.002 318.837C351.119 318.662 351.179 318.457 351.181 318.223C351.179 317.976 351.115 317.757 350.989 317.568C350.864 317.378 350.692 317.229 350.475 317.12C350.26 317.012 350.014 316.957 349.737 316.957C349.457 316.957 349.208 317.012 348.989 317.12C348.771 317.229 348.6 317.378 348.474 317.568C348.351 317.757 348.29 317.976 348.292 318.223C348.29 318.457 348.346 318.662 348.461 318.837C348.579 319.011 348.746 319.147 348.963 319.243C349.18 319.338 349.438 319.386 349.737 319.386ZM349.737 316.28C349.971 316.28 350.179 316.233 350.36 316.139C350.543 316.045 350.687 315.914 350.791 315.746C350.896 315.578 350.949 315.381 350.951 315.155C350.949 314.933 350.897 314.74 350.794 314.576C350.692 314.41 350.55 314.282 350.369 314.193C350.188 314.101 349.977 314.055 349.737 314.055C349.492 314.055 349.277 314.101 349.094 314.193C348.911 314.282 348.769 314.41 348.669 314.576C348.569 314.74 348.52 314.933 348.522 315.155C348.52 315.381 348.57 315.578 348.672 315.746C348.777 315.914 348.92 316.045 349.104 316.139C349.287 316.233 349.498 316.28 349.737 316.28Z" fill="white" fill-opacity="0.3"/>
<path d="M363.723 122.089C363.348 122.089 363.01 122.015 362.71 121.866C362.409 121.717 362.169 121.512 361.988 121.252C361.806 120.992 361.707 120.696 361.69 120.364H362.457C362.487 120.66 362.621 120.905 362.86 121.099C363.101 121.29 363.388 121.386 363.723 121.386C363.991 121.386 364.23 121.324 364.439 121.198C364.65 121.072 364.815 120.9 364.934 120.68C365.056 120.458 365.116 120.208 365.116 119.929C365.116 119.643 365.054 119.389 364.928 119.165C364.804 118.939 364.634 118.761 364.417 118.631C364.199 118.501 363.951 118.435 363.672 118.433C363.472 118.431 363.266 118.462 363.055 118.526C362.844 118.588 362.67 118.668 362.534 118.766L361.793 118.676L362.189 115.455H365.589V116.158H362.854L362.624 118.088H362.662C362.796 117.982 362.964 117.893 363.167 117.823C363.369 117.752 363.58 117.717 363.8 117.717C364.2 117.717 364.557 117.813 364.87 118.005C365.186 118.195 365.433 118.455 365.612 118.785C365.793 119.115 365.884 119.492 365.884 119.916C365.884 120.334 365.79 120.707 365.602 121.035C365.417 121.361 365.161 121.619 364.835 121.808C364.509 121.996 364.138 122.089 363.723 122.089ZM367.869 120.21L367.856 119.277H368.01L370.157 117.091H371.091L368.802 119.405H368.738L367.869 120.21ZM367.166 122V115.455H367.92V122H367.166ZM370.285 122L368.368 119.571L368.905 119.047L371.244 122H370.285Z" fill="white" fill-opacity="0.3"/>
<path d="M361.524 157.658V157.006L364.401 152.455H364.874V153.464H364.554L362.381 156.903V156.955H366.254V157.658H361.524ZM364.605 159V157.46V157.156V152.455H365.359V159H364.605ZM368.168 157.21L368.155 156.277H368.309L370.456 154.091H371.389L369.101 156.405H369.037L368.168 157.21ZM367.465 159V152.455H368.219V159H367.465ZM370.584 159L368.666 156.571L369.203 156.047L371.543 159H370.584Z" fill="white" fill-opacity="0.3"/>
<path d="M363.889 196.089C363.467 196.089 363.091 196.017 362.761 195.872C362.433 195.727 362.172 195.526 361.978 195.268C361.786 195.008 361.682 194.707 361.665 194.364H362.47C362.487 194.575 362.56 194.757 362.688 194.91C362.815 195.061 362.983 195.179 363.189 195.262C363.396 195.345 363.625 195.386 363.876 195.386C364.158 195.386 364.407 195.337 364.624 195.239C364.842 195.141 365.012 195.005 365.136 194.83C365.259 194.656 365.321 194.453 365.321 194.223C365.321 193.982 365.261 193.77 365.142 193.587C365.023 193.402 364.848 193.257 364.618 193.152C364.388 193.048 364.107 192.996 363.774 192.996H363.25V192.293H363.774C364.034 192.293 364.262 192.246 364.458 192.152C364.656 192.058 364.811 191.926 364.922 191.756C365.034 191.585 365.091 191.385 365.091 191.155C365.091 190.933 365.042 190.74 364.944 190.576C364.846 190.412 364.707 190.284 364.528 190.193C364.352 190.101 364.143 190.055 363.902 190.055C363.676 190.055 363.463 190.097 363.263 190.18C363.065 190.261 362.903 190.379 362.777 190.535C362.651 190.688 362.583 190.874 362.572 191.091H361.805C361.818 190.748 361.922 190.447 362.115 190.19C362.309 189.93 362.563 189.727 362.876 189.582C363.191 189.437 363.538 189.365 363.915 189.365C364.32 189.365 364.667 189.447 364.957 189.611C365.246 189.773 365.469 189.987 365.625 190.254C365.78 190.52 365.858 190.808 365.858 191.116C365.858 191.485 365.761 191.799 365.567 192.059C365.375 192.319 365.114 192.499 364.784 192.599V192.651C365.197 192.719 365.52 192.895 365.752 193.178C365.985 193.459 366.101 193.808 366.101 194.223C366.101 194.579 366.004 194.898 365.81 195.182C365.618 195.463 365.356 195.685 365.024 195.847C364.691 196.009 364.313 196.089 363.889 196.089ZM368.124 194.21L368.111 193.277H368.265L370.412 191.091H371.346L369.057 193.405H368.993L368.124 194.21ZM367.421 196V189.455H368.175V196H367.421ZM370.54 196L368.623 193.571L369.159 193.047L371.499 196H370.54Z" fill="white" fill-opacity="0.3"/>
<path d="M361.678 233V232.425L363.838 230.06C364.092 229.783 364.3 229.542 364.464 229.337C364.629 229.131 364.75 228.937 364.829 228.756C364.91 228.572 364.95 228.381 364.95 228.18C364.95 227.95 364.895 227.751 364.784 227.583C364.675 227.414 364.526 227.284 364.337 227.193C364.147 227.101 363.934 227.055 363.697 227.055C363.446 227.055 363.227 227.108 363.039 227.212C362.854 227.314 362.71 227.458 362.608 227.643C362.507 227.829 362.457 228.046 362.457 228.295H361.703C361.703 227.912 361.792 227.575 361.968 227.286C362.145 226.996 362.386 226.77 362.691 226.608C362.998 226.446 363.342 226.365 363.723 226.365C364.107 226.365 364.446 226.446 364.743 226.608C365.039 226.77 365.271 226.988 365.439 227.263C365.608 227.538 365.692 227.844 365.692 228.18C365.692 228.421 365.648 228.657 365.561 228.887C365.475 229.115 365.326 229.369 365.113 229.651C364.902 229.93 364.609 230.271 364.234 230.673L362.764 232.246V232.297H365.807V233H361.678ZM367.843 231.21L367.83 230.277H367.983L370.131 228.091H371.064L368.776 230.405H368.712L367.843 231.21ZM367.14 233V226.455H367.894V233H367.14ZM370.259 233L368.341 230.571L368.878 230.047L371.218 233H370.259Z" fill="#A1F200"/>
<path d="M363.979 263.455V270H363.186V264.286H363.148L361.55 265.347V264.541L363.186 263.455H363.979ZM366.577 268.21L366.564 267.277H366.718L368.865 265.091H369.799L367.51 267.405H367.446L366.577 268.21ZM365.874 270V263.455H366.628V270H365.874ZM368.993 270L367.076 267.571L367.613 267.047L369.952 270H368.993Z" fill="white" fill-opacity="0.3"/>
<path d="M363.812 307.089C363.331 307.089 362.921 306.958 362.582 306.696C362.243 306.432 361.984 306.05 361.805 305.549C361.626 305.046 361.537 304.439 361.537 303.727C361.537 303.02 361.626 302.416 361.805 301.915C361.987 301.412 362.246 301.029 362.585 300.765C362.926 300.498 363.335 300.365 363.812 300.365C364.29 300.365 364.698 300.498 365.037 300.765C365.377 301.029 365.637 301.412 365.816 301.915C365.998 302.416 366.088 303.02 366.088 303.727C366.088 304.439 365.999 305.046 365.82 305.549C365.641 306.05 365.382 306.432 365.043 306.696C364.704 306.958 364.294 307.089 363.812 307.089ZM363.812 306.386C364.29 306.386 364.661 306.156 364.925 305.696C365.189 305.236 365.321 304.58 365.321 303.727C365.321 303.161 365.26 302.678 365.139 302.279C365.02 301.881 364.847 301.577 364.621 301.369C364.397 301.16 364.128 301.055 363.812 301.055C363.339 301.055 362.97 301.289 362.703 301.755C362.437 302.22 362.304 302.877 362.304 303.727C362.304 304.294 362.364 304.776 362.483 305.172C362.602 305.568 362.774 305.87 362.998 306.076C363.223 306.283 363.495 306.386 363.812 306.386ZM368.018 305.21L368.006 304.277H368.159L370.307 302.091H371.24L368.952 304.405H368.888L368.018 305.21ZM367.315 307V300.455H368.07V307H367.315ZM370.435 307L368.517 304.571L369.054 304.047L371.393 307H370.435Z" fill="white" fill-opacity="0.3"/>
<defs>
<filter id="filter0_f_440_1417" x="-158" y="92.7468" width="510" height="311.253" filterUnits="userSpaceOnUse" color-interpolation-filters="sRGB">
<feFlood flood-opacity="0" result="BackgroundImageFix"/>
<feBlend mode="normal" in="SourceGraphic" in2="BackgroundImageFix" result="shape"/>
<feGaussianBlur stdDeviation="50" result="effect1_foregroundBlur_440_1417"/>
</filter>
<linearGradient id="paint0_linear_440_1417" x1="97" y1="192" x2="97" y2="304" gradientUnits="userSpaceOnUse">
<stop stop-color="#A1F200"/>
<stop offset="1" stop-color="#A1F200" stop-opacity="0"/>
</linearGradient>
<linearGradient id="paint1_linear_440_1417" x1="97" y1="192" x2="97" y2="304" gradientUnits="userSpaceOnUse">
<stop stop-color="#A1F200"/>
<stop offset="1" stop-color="#A1F200" stop-opacity="0"/>
</linearGradient>
<clipPath id="clip0_440_1417">
<rect width="16" height="16" fill="white" transform="translate(30 7)"/>
</clipPath>
</defs>
</svg>
