<svg width="393" height="504" viewBox="0 0 393 504" fill="none" xmlns="http://www.w3.org/2000/svg">
<g opacity="0.1">
<path d="M301.888 256.355C301.888 254.831 300.652 253.595 299.128 253.595C297.604 253.595 296.368 254.831 296.368 256.355C296.368 257.88 297.604 259.115 299.128 259.115C300.653 259.115 301.888 257.879 301.888 256.355Z" fill="white"/>
<path d="M172.159 -0.863069C167.73 0.103931 163.259 0.773931 158.72 0.903931C156.862 0.956931 155.001 0.947931 153.144 1.01293C152.61 1.03193 152.082 1.20993 151.517 1.32193C151.087 3.64593 150.483 5.81293 150.989 7.95493C151.751 8.59893 152.509 8.45293 153.219 8.43093C157.339 8.29793 161.459 8.16693 165.576 7.96993C167.43 7.88093 169.285 7.69793 171.125 7.45193C172.562 7.25993 173.98 6.91693 175.401 6.61393C176.055 6.47493 176.598 6.13893 177.019 5.28293C176.987 3.24393 176.946 1.00993 175.538 -1.01207C174.213 -1.27807 173.191 -1.08807 172.159 -0.863069Z" fill="white"/>
<path d="M115.291 123.595C114.937 123.459 114.508 123.521 113.954 123.479C113.833 124.077 113.706 124.603 113.623 125.136C113.5 125.93 113.563 126.789 113.276 127.514C112.174 130.304 110.464 132.617 107.685 133.978C106.52 134.549 105.34 135.09 104.187 135.685C103.775 135.898 103.425 136.229 103.165 136.419C102.929 137.333 103.329 137.816 103.781 138.311C104.982 139.626 106.145 140.976 107.346 142.292C107.776 142.763 108.271 143.175 108.647 143.53C109.975 143.735 110.823 143.075 111.639 142.414C113.662 140.773 115.394 138.847 117.016 136.817C119.071 134.245 120.466 131.34 121.363 128.187C121.515 127.654 121.565 127.091 121.651 126.604C121.442 126.317 121.342 126.023 121.152 125.944C119.208 125.136 117.257 124.346 115.291 123.595Z" fill="white"/>
<path d="M29.9857 78.1538C29.6827 77.6868 29.2327 77.3138 28.8457 76.9008C27.2087 75.1528 26.0237 73.1678 25.5797 70.7788C25.4777 70.2298 25.2777 69.6998 25.1137 69.1268C23.3627 68.1048 21.8427 68.9228 20.0227 69.5788C19.8767 70.6028 19.5917 71.4848 19.6577 72.3398C19.8947 75.4318 20.6207 78.4118 22.2217 81.1098C22.7497 81.9998 23.2647 82.9458 24.3957 83.4388C24.7207 83.3418 25.1607 83.3168 25.4637 83.0998C27.0987 81.9298 28.7857 80.8188 30.2587 79.3428C30.1667 78.8988 30.1827 78.4568 29.9857 78.1538Z" fill="white"/>
<path d="M18.6147 218.116C16.1087 218.232 13.6007 218.339 11.0997 218.532C9.31071 218.67 7.5447 218.619 5.7817 218.303C3.79171 217.947 1.80171 217.591 -0.18729 217.233C-0.90329 217.104 -1.62329 216.91 -2.53229 217.612C-2.91329 219.381 -2.98029 221.348 -2.29329 223.302C-2.09229 223.872 -1.60728 224.22 -1.00328 224.279C-0.363284 224.341 0.288716 224.375 0.927716 224.323C3.42772 224.116 5.92771 223.893 8.42271 223.629C10.2887 223.432 12.1327 223.472 13.9777 223.825C15.6457 224.143 17.3217 224.421 18.9957 224.707C19.6387 224.817 20.2867 224.91 20.9967 224.225C21.3407 222.431 21.4197 220.447 21.2627 218.148C20.2167 218.133 19.4137 218.079 18.6147 218.116Z" fill="white"/>
<path d="M86.3967 36.8949C85.2037 34.5839 84.0147 32.2719 83.2527 29.8299C83.1557 29.5189 83.0457 29.2039 82.8787 28.9149C82.5957 28.4229 82.1627 28.0709 81.2747 28.1059C79.8687 28.8009 78.2717 29.4639 77.1797 30.6089C77.6477 32.5729 79.8007 37.2559 82.3517 41.8629C82.6047 42.3199 82.9567 42.7399 83.3087 43.2439C85.2877 43.2189 86.7197 42.4039 88.2327 41.4349C88.1177 40.9189 88.0857 40.4029 87.8827 39.9379C87.4347 38.9109 86.9167 37.9019 86.3967 36.8949Z" fill="white"/>
<path d="M264.18 179.584C259.751 180.551 255.28 181.221 250.741 181.351C248.883 181.404 247.022 181.395 245.165 181.46C244.631 181.479 244.103 181.657 243.538 181.769C243.108 184.093 242.504 186.26 243.01 188.402C243.772 189.046 244.53 188.901 245.24 188.878C249.36 188.745 253.48 188.614 257.597 188.417C259.451 188.328 261.306 188.145 263.146 187.899C264.583 187.707 266.001 187.364 267.422 187.061C268.076 186.922 268.619 186.586 269.04 185.73C269.008 183.691 268.967 181.457 267.558 179.435C266.234 179.169 265.212 179.359 264.18 179.584Z" fill="white"/>
<path d="M17.5147 -8.99007C13.0857 -8.02307 8.61472 -7.35307 4.07572 -7.22307C2.21772 -7.17007 0.357718 -7.17907 -1.50028 -7.11407C-2.03428 -7.09507 -2.56228 -6.91707 -3.12728 -6.80507C-3.55728 -4.48107 -4.16128 -2.31407 -3.65528 -0.172074C-2.89328 0.471926 -2.13528 0.326925 -1.42528 0.303926C2.69472 0.170925 6.81473 0.0399256 10.9317 -0.157074C12.7857 -0.246074 14.6407 -0.429074 16.4807 -0.675075C17.9177 -0.867075 19.3357 -1.21007 20.7567 -1.51307C21.4107 -1.65207 21.9537 -1.98807 22.3747 -2.84407C22.3427 -4.88307 22.3017 -7.11707 20.8937 -9.13907C19.5687 -9.40607 18.5467 -9.21607 17.5147 -8.99007Z" fill="white"/>
<path d="M347.812 71.5689C344.936 75.0729 341.842 78.3699 338.36 81.2849C336.935 82.4779 335.469 83.6239 334.052 84.8269C333.645 85.1719 333.341 85.6399 332.967 86.0779C334.07 88.1689 334.939 90.2439 336.664 91.6109C337.661 91.6439 338.166 91.0599 338.709 90.6019C341.86 87.9439 345.012 85.2879 348.121 82.5809C349.521 81.3619 350.863 80.0689 352.155 78.7349C353.164 77.6929 354.064 76.5449 354.991 75.4269C355.418 74.9119 355.636 74.3129 355.436 73.3789C354.148 71.7989 352.73 70.0709 350.372 69.3569C349.167 69.9699 348.482 70.7529 347.812 71.5689Z" fill="white"/>
<path d="M233.588 89.3289C233.354 89.0339 233.151 88.6799 232.859 88.4319C232.367 88.0149 231.814 87.6709 231.294 87.2869C227.929 84.7989 225.507 81.6839 224.694 77.4719C224.511 76.5219 224.217 75.5919 223.943 74.6619C223.513 73.2039 222.603 72.7239 221.169 73.3099C219.975 73.7979 218.821 74.3939 217.68 74.9989C216.22 75.7719 215.981 76.2909 216.215 77.9319C216.272 78.3309 216.35 78.7309 216.467 79.1159C217.219 81.5959 218.155 84.0049 219.422 86.2679C221.015 89.1129 223.136 91.5509 225.482 93.7949C226.001 94.2919 226.542 94.8189 227.566 94.6929C229.368 93.2179 231.303 91.6439 233.221 90.0489C233.387 89.9089 233.439 89.6309 233.588 89.3289Z" fill="white"/>
<path d="M161.486 227.528C161.249 227.163 160.899 226.872 160.597 226.55C159.319 225.186 158.395 223.637 158.048 221.772C157.968 221.344 157.813 220.93 157.684 220.483C156.317 219.685 155.131 220.324 153.711 220.836C153.597 221.635 153.375 222.323 153.426 222.991C153.611 225.404 154.177 227.729 155.427 229.835C155.839 230.529 156.241 231.267 157.124 231.652C157.377 231.576 157.721 231.557 157.957 231.388C159.233 230.475 160.55 229.608 161.699 228.456C161.627 228.109 161.64 227.764 161.486 227.528Z" fill="white"/>
<path d="M121.745 198.772C121.745 201.467 119.56 203.652 116.865 203.652C114.17 203.652 111.985 201.467 111.985 198.772C111.985 196.077 114.17 193.892 116.865 193.892C119.56 193.892 121.745 196.078 121.745 198.772Z" fill="white"/>
<path d="M347.86 162.083C347.786 161.124 347.835 160.181 347.99 159.237C348.209 157.906 348.245 156.567 348.135 155.223C348.006 153.646 347.683 152.106 347.249 150.588C346.562 148.184 345.566 145.906 344.45 143.676C343.402 141.582 342.179 139.601 340.674 137.802C340.449 137.533 340.23 137.26 339.99 137.006C339.687 136.685 339.268 136.607 338.823 136.765C338.982 139.006 338.586 141.221 338.47 143.532C338.766 143.572 338.955 143.767 339.132 143.974C340.096 145.097 340.998 146.267 341.778 147.526C343.268 149.931 344.475 152.476 345.474 155.119C346.072 156.701 346.514 158.328 346.819 159.992C347.222 161.495 347.58 162.752 347.894 163.802C347.912 163.232 347.904 162.66 347.86 162.083Z" fill="white"/>
<path d="M298.317 188.161C298.665 186.939 299.152 185.778 299.798 184.684C300.999 182.649 302.547 180.915 304.394 179.455C307.48 177.016 310.984 175.601 314.908 175.236C316.83 175.058 318.754 175.053 320.68 175.148C322.877 175.257 325.061 175.498 327.248 175.718C328.816 175.876 330.386 176.011 331.961 176.068C333.481 176.122 334.995 176.066 336.503 175.863C337.993 175.662 339.449 175.327 340.838 174.736C342.512 174.025 343.963 173.003 345.135 171.606C345.98 170.598 346.606 169.461 347.058 168.226C347.586 166.784 347.848 165.306 347.894 163.802C347.58 162.752 347.221 161.495 346.819 159.992C346.83 160.054 346.849 160.114 346.861 160.177C346.92 160.509 346.926 160.826 346.815 161.152C345.864 163.942 344.134 166.078 341.521 167.476C340.169 168.199 338.722 168.635 337.218 168.892C335.502 169.184 333.772 169.243 332.04 169.14C330.448 169.045 328.86 168.896 327.271 168.761C325.449 168.606 323.63 168.413 321.807 168.287C319.456 168.123 317.103 168.122 314.755 168.382C313.125 168.562 311.525 168.883 309.978 169.433C306.017 170.839 302.777 173.218 300.304 176.629C299.372 177.914 298.639 179.299 298.138 180.805C297.751 181.969 297.522 183.16 297.423 184.369C297.536 185.888 297.838 187.547 298.245 189.198C298.198 188.841 298.22 188.503 298.317 188.161Z" fill="white"/>
<path d="M321.768 249.818C321.643 249.104 321.636 248.386 321.695 247.666C321.752 246.968 321.802 246.27 321.86 245.572C321.882 245.301 321.885 245.022 321.954 244.762C322.145 244.048 322.121 243.342 321.962 242.631C321.953 242.593 321.951 242.554 321.946 242.515C321.499 239.472 320.947 236.449 320.243 233.456C319.72 231.233 318.971 229.084 317.96 227.037C317.375 225.852 316.718 224.703 316.076 223.547C314.941 221.507 313.739 219.508 312.377 217.609C311.198 215.966 310.014 214.328 308.832 212.687C306.624 209.622 304.595 206.446 302.885 203.072C301.502 200.344 300.272 197.554 299.405 194.613C298.881 192.837 298.485 191.035 298.244 189.198V189.194C297.838 187.543 297.536 185.885 297.422 184.365C297.383 184.84 297.36 185.316 297.361 185.796C297.365 186.985 297.292 188.167 297.184 189.349C297.14 189.833 297.1 190.318 297.059 190.802C296.951 192.065 296.951 193.328 297.054 194.591C297.322 197.873 298.12 201.033 299.284 204.104C300.646 207.698 302.391 211.103 304.393 214.378C305.834 216.736 307.437 218.984 309.067 221.213C310.456 223.112 311.845 225.011 313.094 227.007C314.197 228.772 315.209 230.589 316.212 232.411C317.667 235.053 318.679 237.862 319.335 240.802C320.001 243.784 320.545 246.788 320.978 249.813C321.013 250.06 321.024 250.314 321.142 250.572C321.243 250.562 321.337 250.556 321.429 250.542C321.561 250.522 321.692 250.497 321.852 250.469C321.824 250.239 321.805 250.027 321.768 249.818Z" fill="white"/>
<path d="M82.0691 176.094C82.0691 176.094 82.5751 175.879 83.3451 175.441C83.3441 175.434 83.3451 175.426 83.3451 175.419C82.9221 175.66 82.4961 175.89 82.0691 176.094Z" fill="white"/>
<path d="M74.7869 167.608C69.9669 166.388 64.48 166.45 59.605 167.293C57.186 167.711 54.799 168.375 52.5589 169.39C51.7819 169.742 48.643 171.029 48.738 171.652C48.899 172.711 50.5219 172.828 51.2889 173.008C57.0769 174.372 63.1079 174.087 68.9659 173.375C72.9269 172.894 77.065 172.204 80.67 170.426C80.659 170.416 80.646 170.408 80.635 170.398C78.995 168.996 76.8539 168.13 74.7869 167.608Z" fill="white"/>
<path d="M85.9569 182.311C86.7999 179.506 86.755 176.472 86.002 173.627C85.003 174.438 84.0609 175.035 83.3459 175.441C83.5719 178.318 82.03 181.243 80.231 183.399C73.012 192.055 60.2579 193.815 49.8389 195.65C49.4529 195.718 49.2059 195.953 49.0649 196.289C52.7709 196.672 58.8669 197.447 63.6629 198.773C73.3669 196.319 83.0469 191.997 85.9569 182.311Z" fill="white"/>
<path d="M80.9959 219.25C82.0029 215.727 81.2169 211.866 79.3409 208.758C76.1499 203.471 70.0569 200.642 63.6609 198.772C58.8649 197.447 52.7689 196.671 49.0629 196.288C48.4659 197.708 49.8039 200.952 51.0039 201.229C57.6109 202.754 83.2219 206.835 76.9779 217.77C74.6399 221.864 71.8289 225.355 71.2999 229.345L75.1879 228.539C76.9389 225.244 80.3919 221.363 80.9959 219.25Z" fill="white"/>
<path d="M74.7869 167.608C69.9669 166.388 64.48 166.45 59.605 167.293C57.186 167.711 54.799 168.375 52.5589 169.39C51.7819 169.742 48.643 171.029 48.738 171.652C48.827 172.237 49.365 172.53 49.956 172.71C50.382 172.81 50.8219 172.91 51.2889 173.009C57.0769 174.373 63.1079 174.088 68.9659 173.376C72.9269 172.895 77.065 172.205 80.67 170.427C80.659 170.417 80.646 170.409 80.635 170.399C78.995 168.996 76.8539 168.13 74.7869 167.608Z" fill="white"/>
<path d="M49.956 172.709C49.365 172.529 48.827 172.236 48.738 171.651C48.643 171.027 51.783 169.74 52.559 169.389C54.799 168.375 57.186 167.711 59.605 167.292C64.48 166.449 69.966 166.387 74.787 167.607C76.853 168.13 78.995 168.995 80.635 170.398C81.566 170.006 82.781 169.385 83.732 168.516C80.169 163.086 73.869 161.513 67.731 161.225C62.926 160.999 50.224 162.124 45.968 167.019C45.923 167.068 45.885 167.116 45.843 167.165C45.221 167.921 44.811 168.768 44.645 169.708C44.785 171.116 46.76 171.956 49.956 172.709Z" fill="white"/>
<path d="M94.623 160.925C95.598 156.747 93.984 150.446 89.548 149.041L88.728 154.351C95.878 154.681 86.413 166.343 84.05 168.273C83.946 168.358 83.837 168.435 83.732 168.517C82.782 169.386 81.567 170.007 80.635 170.399C80.646 170.409 80.659 170.417 80.67 170.427C77.064 172.204 72.927 172.894 68.966 173.376C63.108 174.088 57.077 174.373 51.289 173.009C50.946 172.928 50.434 172.856 49.956 172.71C46.761 171.957 44.785 171.117 44.645 169.709C44.386 171.178 44.738 172.876 45.953 174.848C48.927 179.675 56.842 179.596 61.813 179.553C68.445 179.496 75.991 178.988 82.069 176.094C82.497 175.89 82.922 175.661 83.345 175.418C83.346 175.426 83.345 175.433 83.345 175.44C84.06 175.034 85.003 174.437 86.001 173.626C90.089 170.438 93.512 165.686 94.623 160.925Z" fill="white"/>
<path d="M19.6009 180.256C19.2979 179.789 18.8479 179.416 18.4609 179.003C16.8239 177.255 15.6389 175.27 15.1949 172.881C15.0929 172.333 14.8929 171.802 14.7289 171.229C12.9779 170.207 11.4579 171.025 9.63794 171.681C9.49194 172.705 9.20695 173.587 9.27295 174.442C9.50995 177.534 10.2359 180.514 11.8369 183.212C12.3649 184.101 12.8789 185.047 14.0109 185.541C14.3359 185.443 14.7759 185.419 15.0779 185.203C16.7129 184.033 18.4009 182.922 19.8729 181.446C19.7809 181.001 19.7979 180.559 19.6009 180.256Z" fill="white"/>
<path d="M376.187 39.1079C376.278 38.3229 376.412 37.5849 376.573 36.8839C376.48 37.0249 376.409 37.1789 376.372 37.3599C376.25 37.9449 376.201 38.5269 376.187 39.1079Z" fill="white"/>
<path d="M393.316 118.721C392.955 118.161 392.703 117.55 392.453 116.938C391.929 115.655 391.576 114.32 391.26 112.976C390.668 110.455 390.29 107.898 390.03 105.323C389.83 103.337 389.95 101.359 390.225 99.3899C390.48 97.5609 390.764 95.7349 391.048 93.9099C391.275 92.4499 391.482 90.9849 391.765 89.5349C392.479 85.8839 392.917 82.1979 393.206 78.4929C393.578 73.7109 392.779 69.1169 390.949 64.6929C390.465 63.5229 389.897 62.3949 389.314 61.2729C388.408 59.5269 387.378 57.8579 386.243 56.2519C384.951 54.4239 383.518 52.7079 382.085 50.9919C380.938 49.6189 379.805 48.2349 378.815 46.7419C377.854 45.2929 377.032 43.7789 376.555 42.0919C376.275 41.1019 376.162 40.1079 376.187 39.1089C376.202 38.5279 376.251 37.9459 376.372 37.3599C376.409 37.1799 376.48 37.0249 376.573 36.8839C377.167 34.3009 378.166 32.2799 379.115 30.8229C378.213 31.6839 377.458 32.6819 376.894 33.8519C376.429 34.8179 375.901 35.7449 375.329 36.6499C374.945 37.2579 374.574 37.8749 374.198 38.4879C373.521 39.5879 373 40.7569 372.636 41.9959C372.121 43.7489 372.037 45.5159 372.481 47.2969C372.817 48.6469 373.374 49.9059 374.067 51.1089C374.748 52.2909 375.527 53.4069 376.38 54.4689C377.377 55.7119 378.394 56.9389 379.407 58.1699C380.383 59.3559 381.339 60.5569 382.231 61.8089C383.713 63.8879 384.989 66.0869 386.108 68.3819C387.083 70.3829 387.864 72.4489 388.416 74.6049C389.146 77.4519 389.446 80.3409 389.284 83.2749C389.138 85.9169 388.846 88.5459 388.462 91.1629C388.242 92.6629 387.931 94.1489 387.693 95.6469C387.196 98.7769 386.698 101.907 386.244 105.044C385.976 106.894 385.864 108.76 386.039 110.628C386.347 113.905 386.86 117.148 387.742 120.324C388.055 121.449 388.43 122.554 388.947 123.606C389.169 124.058 389.408 124.502 389.696 124.878C389.941 124.957 390.144 125.022 390.369 125.095C390.554 124.235 390.952 123.479 391.38 122.739C391.701 122.183 392.047 121.642 392.373 121.09C392.71 120.52 393.069 119.966 393.485 119.45C393.531 119.393 393.556 119.318 393.595 119.244C393.499 119.061 393.42 118.883 393.316 118.721Z" fill="white"/>
<path d="M389.805 26.0989C389.582 26.1909 389.39 26.2859 389.188 26.3509C388.67 26.5169 388.151 26.6829 387.625 26.8249C386.461 27.1409 385.302 27.4619 384.164 27.8669C383.115 28.2399 382.117 28.7119 381.155 29.2669C380.391 29.7079 379.725 30.2389 379.114 30.8229C378.165 32.2789 377.166 34.3009 376.572 36.8839C376.634 36.7909 376.698 36.6989 376.796 36.6249C377.028 36.4479 377.249 36.2579 377.484 36.0849C378.992 34.9759 380.699 34.2739 382.465 33.7119C383.502 33.3829 384.562 33.1259 385.607 32.8219C386.223 32.6429 386.827 32.4249 387.405 32.1389C387.945 31.8719 388.403 31.5149 388.791 31.0789C389.284 29.9479 389.489 28.4769 389.805 26.0989Z" fill="white"/>
<path d="M393.76 20.7359C394.238 17.4869 393.973 14.2969 392.926 11.1799C392.534 10.0119 391.996 8.9149 391.257 7.9219C390.904 7.4479 390.482 7.0509 389.957 6.7729C389.876 6.7299 389.783 6.7089 389.677 6.6709C388.773 8.7939 387.405 10.6209 386.287 12.6119C386.997 13.0609 387.461 13.7059 387.869 14.3949C388.326 15.1669 388.699 15.9819 388.981 16.8329C389.945 19.7389 390.223 22.7169 389.874 25.7559C389.863 25.8509 389.837 25.9449 389.805 26.0989C389.489 28.4769 389.284 29.9469 388.791 31.0789C388.943 30.9089 389.086 30.7289 389.216 30.5329C389.541 30.0429 389.793 29.5169 389.969 28.9589C390.135 28.4349 390.375 27.9509 390.666 27.4879C390.935 27.0599 391.181 26.6179 391.449 26.1889C391.624 25.9089 391.804 25.6299 392.01 25.3719C392.628 24.5999 393.062 23.7359 393.313 22.7849C393.491 22.1099 393.659 21.4259 393.76 20.7359Z" fill="white"/>
<path d="M190.54 50.1519C190.705 47.8649 191.336 45.7019 192.178 43.5819C192.715 42.2289 193.201 40.8529 193.645 39.4659C194.182 37.7849 194.653 36.0829 195.007 34.3159C193.739 33.2059 192.168 32.9999 190.774 32.4239C190.184 32.1799 189.539 31.9879 188.908 31.9449C188.203 31.8969 187.668 32.3429 187.439 33.0079C187.15 33.8479 186.899 34.7059 186.715 35.5749C185.767 40.0449 184.219 44.2799 181.884 48.2199C181.564 48.7599 181.354 49.3639 181.169 49.7709C181.357 50.6319 181.788 50.9839 182.395 51.0559C184.643 51.3229 186.894 51.5699 189.148 51.7869C189.441 51.8149 189.755 51.6249 190.247 51.4819C190.374 50.9229 190.512 50.5409 190.54 50.1519Z" fill="white"/>
<path d="M103.15 -3.2641C101.035 -4.9971 98.597 -6.3491 96.919 -8.7041C96.465 -8.4971 96.027 -8.4231 95.787 -8.1651C94.906 -7.2181 94.063 -6.2311 93.265 -5.2121C92.982 -4.8511 92.87 -4.3571 92.668 -3.8971C92.881 -3.4951 93.017 -3.1011 93.265 -2.8001C93.778 -2.1771 94.339 -1.5911 94.901 -1.0111C96.251 0.383898 97.674 1.7139 98.955 3.1689C100.396 4.8069 101.716 6.5519 103.084 8.2549C103.485 8.7539 103.799 9.3619 104.985 9.3709C106.56 7.8609 108.243 6.0729 109.666 3.9499C109.329 3.3769 109.093 2.8669 108.76 2.4309C107.133 0.295898 105.226 -1.5631 103.15 -3.2641Z" fill="white"/>
<path d="M40.9958 14.871C39.9368 14.034 39.0858 12.893 37.5958 12.427C37.3228 12.728 36.9868 12.973 36.8338 13.302C36.6688 13.655 36.6668 14.087 36.6098 14.487C36.2068 17.3 34.6908 19.436 32.5058 21.138C31.7428 21.733 30.8948 22.219 30.0808 22.749C29.5458 23.097 29.0048 23.435 28.5878 23.7C28.1198 24.723 28.4858 25.426 28.9808 26.104C30.0308 27.543 31.0508 29.006 32.1448 30.41C32.4638 30.82 32.9948 31.065 33.5168 31.451C34.3428 30.894 35.1518 30.489 35.7818 29.894C37.6068 28.172 39.3908 26.404 41.1258 24.592C41.8478 23.838 42.4828 22.971 43.0168 22.073C43.7998 20.755 44.4958 19.373 44.2858 17.634C43.1038 16.636 42.0738 15.723 40.9958 14.871Z" fill="white"/>
<path d="M78.671 106.92C75.357 110.014 71.855 112.873 68.019 115.303C66.448 116.298 64.845 117.24 63.281 118.245C62.832 118.534 62.469 118.957 62.04 119.342C62.857 121.56 63.445 123.731 64.974 125.315C65.958 125.479 66.535 124.967 67.134 124.585C70.608 122.367 74.083 120.15 77.522 117.878C79.071 116.855 80.572 115.75 82.028 114.599C83.165 113.7 84.209 112.68 85.276 111.694C85.767 111.24 86.062 110.675 85.987 109.723C84.919 107.987 83.742 106.086 81.498 105.068C80.225 105.514 79.444 106.199 78.671 106.92Z" fill="white"/>
<path d="M283.043 126.91C281.299 131.095 279.288 135.144 276.794 138.939C275.773 140.493 274.701 142.013 273.69 143.573C273.4 144.021 273.244 144.556 273.012 145.084C274.671 146.768 276.102 148.504 278.147 149.316C279.111 149.06 279.426 148.355 279.814 147.76C282.065 144.307 284.317 140.854 286.513 137.366C287.502 135.795 288.415 134.17 289.267 132.521C289.932 131.233 290.463 129.874 291.029 128.536C291.289 127.92 291.325 127.283 290.864 126.447C289.175 125.305 287.32 124.059 284.855 124.056C283.878 124.988 283.449 125.934 283.043 126.91Z" fill="white"/>
<path d="M160.878 187.848C161.043 185.561 161.674 183.398 162.516 181.278C163.053 179.925 163.539 178.549 163.983 177.162C164.52 175.481 164.991 173.779 165.345 172.012C164.077 170.902 162.506 170.696 161.112 170.12C160.522 169.876 159.877 169.684 159.246 169.641C158.541 169.593 158.006 170.039 157.777 170.704C157.488 171.544 157.237 172.402 157.053 173.271C156.105 177.741 154.557 181.976 152.223 185.916C151.903 186.456 151.693 187.06 151.508 187.467C151.696 188.328 152.127 188.68 152.734 188.752C154.982 189.018 157.233 189.266 159.487 189.483C159.78 189.511 160.095 189.321 160.586 189.178C160.711 188.619 160.85 188.238 160.878 187.848Z" fill="white"/>
<path d="M287.223 226.995C284.723 225.704 282.624 223.976 281.097 221.589C280.313 220.363 279.518 219.143 278.574 217.682C278.042 217.711 277.511 217.6 277.121 217.785C274.571 218.991 274.127 220.314 275.45 222.839C276.811 225.436 278.513 227.815 280.491 229.97C281.582 231.159 282.841 232.197 284.046 233.279C284.531 233.715 285.082 234.064 286.04 233.958C287.681 232.707 288.594 230.757 289.507 228.966C289.08 227.685 288.065 227.43 287.223 226.995Z" fill="white"/>
<path d="M368.894 123.664C368.591 123.197 368.141 122.824 367.754 122.411C366.117 120.663 364.932 118.678 364.488 116.289C364.386 115.74 364.186 115.21 364.022 114.637C362.271 113.615 360.751 114.434 358.931 115.089C358.785 116.113 358.5 116.995 358.566 117.85C358.803 120.942 359.529 123.922 361.13 126.62C361.658 127.51 362.172 128.455 363.304 128.949C363.629 128.852 364.069 128.827 364.371 128.611C366.006 127.441 367.694 126.33 369.166 124.854C369.075 124.409 369.091 123.968 368.894 123.664Z" fill="white"/>
<path d="M360.228 277.325C359.522 277.673 359.159 278.305 358.723 278.844C357.603 280.229 356.207 281.219 354.599 281.949C353.052 282.652 351.446 283.111 349.747 283.22C349.314 283.248 348.874 283.254 348.565 283.63C348.356 284.964 348.52 286.448 349.066 287.994C349.274 288.044 349.529 288.161 349.78 288.153C350.1 288.143 350.422 288.048 350.736 287.965C354.906 286.863 358.341 284.576 361.229 281.421C361.594 281.023 361.926 280.582 362.201 280.118C362.38 279.816 362.429 279.436 362.543 279.068C361.761 278.395 361.311 277.444 360.228 277.325Z" fill="white"/>
<path d="M288.38 38.388C289.121 37.445 289.866 36.479 290.351 35.317C289.51 33.828 288.198 32.858 286.923 31.895C286.556 31.617 285.868 31.763 285.496 31.73C285.251 31.911 285.172 31.948 285.125 32.009C284.978 32.202 284.818 32.391 284.707 32.604C282.569 36.738 279.529 40.021 275.523 42.409C274.907 42.776 274.235 43.12 273.881 44.032C273.943 44.267 273.936 44.732 274.162 45.002C274.991 45.995 275.874 46.947 276.785 47.867C277.294 48.382 277.996 48.426 278.59 48.078C279.422 47.59 280.236 47.041 280.961 46.407C283.716 43.999 286.125 41.259 288.38 38.388Z" fill="white"/>
<path d="M343.672 203.129C343.447 203.039 343.222 202.935 342.987 202.886C338.431 201.933 334.455 199.883 331.081 196.664C330.563 196.169 330.051 195.614 329.077 195.516C328.867 195.639 328.417 195.757 328.217 196.047C327.482 197.112 326.802 198.218 326.159 199.342C325.8 199.971 325.945 200.659 326.439 201.137C327.132 201.808 327.879 202.445 328.684 202.974C331.742 204.984 335.027 206.571 338.397 207.975C339.504 208.436 340.634 208.895 341.884 209.051C343.093 207.842 343.676 206.318 344.263 204.831C344.432 204.402 344.108 203.779 344.04 203.411C343.799 203.224 343.743 203.158 343.672 203.129Z" fill="white"/>
<path d="M346.979 -3.25903C346.002 -2.32603 345.572 -1.37903 345.166 -0.404033C343.422 3.78097 341.411 7.82997 338.918 11.625C337.897 13.179 336.824 14.698 335.814 16.259C335.524 16.707 335.368 17.242 335.136 17.77C336.795 19.454 338.226 21.19 340.271 22.002C341.235 21.746 341.55 21.041 341.938 20.446C344.189 16.993 346.441 13.54 348.637 10.052C349.626 8.48097 350.538 6.85597 351.39 5.20697C352.055 3.91897 352.586 2.55997 353.152 1.22197C353.412 0.605967 353.448 -0.031033 352.987 -0.867033C351.298 -2.01003 349.443 -3.25603 346.979 -3.25903Z" fill="white"/>
<path d="M111.099 236.744C110.588 237.232 110.363 237.727 110.151 238.238C109.239 240.427 108.186 242.545 106.882 244.531C106.348 245.344 105.787 246.139 105.258 246.955C105.106 247.189 105.025 247.469 104.903 247.745C105.771 248.626 106.52 249.534 107.589 249.959C108.093 249.825 108.258 249.456 108.461 249.145C109.638 247.338 110.817 245.532 111.966 243.708C112.484 242.886 112.961 242.036 113.406 241.173C113.754 240.499 114.032 239.788 114.328 239.088C114.464 238.766 114.483 238.433 114.242 237.995C113.359 237.398 112.389 236.746 111.099 236.744Z" fill="white"/>
<path d="M106.511 92.2359C106.836 92.1389 107.276 92.1139 107.578 91.8979C109.213 90.7279 110.901 89.6169 112.373 88.1409C112.28 87.6969 112.296 87.2549 112.1 86.9519C111.797 86.4849 111.347 86.1119 110.96 85.6989C109.323 83.9509 108.138 81.9659 107.694 79.5769C107.592 79.0279 107.392 78.4979 107.228 77.9259C105.477 76.9039 103.957 77.7219 102.137 78.3779C101.991 79.4019 101.706 80.2839 101.772 81.1389C102.009 84.2309 102.735 87.2109 104.336 89.9089C104.865 90.7969 105.379 91.7429 106.511 92.2359Z" fill="white"/>
<path d="M8.85302 270.854C7.21602 269.106 6.03103 267.121 5.58703 264.732C5.48503 264.183 5.28603 263.653 5.12103 263.081C3.37003 262.059 1.85003 262.877 0.0300252 263.533C-0.115975 264.557 -0.400965 265.439 -0.334965 266.294C-0.0979651 269.386 0.62803 272.366 2.22903 275.064C2.75703 275.954 3.27203 276.9 4.40303 277.393C4.72803 277.295 5.16803 277.271 5.47003 277.055C7.10503 275.885 8.79303 274.774 10.265 273.298C10.172 272.854 10.188 272.412 9.99203 272.109C9.69003 271.639 9.24002 271.267 8.85302 270.854Z" fill="white"/>
<path d="M363.437 250.575C363.437 247.88 361.252 245.695 358.557 245.695C355.862 245.695 353.677 247.88 353.677 250.575C353.677 253.27 355.862 255.455 358.557 255.455C361.252 255.455 363.437 253.27 363.437 250.575Z" fill="white"/>
<path d="M327.538 48.3029C327.538 45.6079 325.353 43.4229 322.658 43.4229C319.963 43.4229 317.778 45.6079 317.778 48.3029C317.778 50.9979 319.963 53.1829 322.658 53.1829C325.353 53.1819 327.538 50.9979 327.538 48.3029Z" fill="white"/>
<path d="M167.167 75.5718C165.992 73.1478 164.52 70.9058 162.95 68.7258C161.916 67.2898 160.854 65.8728 159.822 64.4358C158.833 63.0578 157.967 61.6068 157.303 60.0418C157.052 59.4508 156.82 58.8528 156.684 58.2228C156.576 57.7228 156.547 57.2208 156.757 56.7328C156.801 56.6318 156.841 56.5288 156.884 56.4228C156.696 56.2618 156.537 56.1248 156.375 55.9858C156.313 56.0378 156.255 56.0668 156.226 56.1128C155.959 56.5518 155.595 56.9048 155.201 57.2228C154.55 57.7468 153.884 58.2528 153.217 58.7558C152.643 59.1888 152.078 59.6428 151.428 59.9568C151.023 60.1528 150.874 60.4828 150.823 60.8828C150.776 61.2508 150.788 61.6238 150.893 61.9828C151.031 62.4488 151.165 62.9168 151.341 63.3688C151.951 64.9348 152.759 66.3978 153.718 67.7738C154.585 69.0178 155.485 70.2398 156.381 71.4638C157.46 72.9398 158.523 74.4268 159.496 75.9758C160.91 78.2238 162.085 80.5848 162.908 83.1158C163.657 85.4198 164.106 87.7818 164.291 90.1968C164.483 92.7148 164.351 95.2098 163.834 97.6828C163.254 100.46 162.294 103.105 160.994 105.622C160.549 106.485 160.037 107.314 159.549 108.154C159.477 108.277 159.414 108.424 159.218 108.485L158.001 111.789C158.111 111.502 158.286 111.296 158.533 111.12C159.214 110.635 159.885 110.135 160.559 109.641C162.513 108.209 164.115 106.449 165.407 104.405C167.134 101.672 168.397 98.7348 169.247 95.6188C169.917 93.1628 170.225 90.6628 170.171 88.1178C170.144 86.8528 170.029 85.5958 169.852 84.3418C169.422 81.2778 168.518 78.3568 167.167 75.5718Z" fill="white"/>
<path d="M138.477 91.2728C138.408 91.3838 138.34 91.4958 138.273 91.6088C138.342 91.4968 138.413 91.3828 138.477 91.2728Z" fill="white"/>
<path d="M135.707 99.1048C135.489 101.138 135.637 103.142 136.201 105.11C136.606 106.523 137.221 107.835 138.109 109.016C138.914 110.086 139.881 110.971 141.025 111.666C143.234 113.007 145.612 113.764 148.213 113.706C149.861 113.67 151.442 113.276 152.985 112.714C153.042 112.693 153.101 112.66 153.174 112.621L153.406 112.003C153.622 111.116 153.859 110.233 154.038 109.339C154.558 106.738 154.615 104.129 154.1 101.519C153.706 99.5238 153.088 97.6028 152.08 95.8298C150.244 92.5988 147.526 90.5278 143.882 89.7178C142.57 89.4258 141.259 89.4698 139.955 89.7948C139.561 89.8928 139.264 90.0838 139.026 90.4308C138.835 90.7088 138.656 90.9898 138.479 91.2728C138.414 91.3828 138.344 91.4958 138.275 91.6088C136.898 93.9098 135.997 96.3898 135.707 99.1048Z" fill="white"/>
<path d="M152.984 112.714C151.442 113.276 149.86 113.67 148.212 113.706C145.611 113.764 143.233 113.007 141.024 111.666C139.88 110.971 138.913 110.086 138.108 109.016C137.22 107.835 136.605 106.523 136.2 105.11C135.635 103.142 135.488 101.138 135.706 99.1048C135.996 96.3908 136.897 93.9098 138.272 91.6088C138.221 91.6918 138.174 91.7728 138.121 91.8558C138.174 91.7718 138.221 91.6908 138.272 91.6088C138.339 91.4968 138.407 91.3848 138.476 91.2728C139.463 89.5978 140.03 88.1928 141.055 87.1068C140.594 87.4848 140.156 87.8918 139.74 88.3258C139.552 88.5218 139.368 88.7298 139.151 88.8888C138.557 89.3268 137.962 89.7678 137.338 90.1608C136.092 90.9458 134.997 91.8968 134.052 93.0228C132.879 94.4198 131.966 95.9748 131.256 97.6498C129.853 100.964 129.417 104.385 130.171 107.926C130.725 110.526 131.946 112.771 133.856 114.624C135.495 116.213 137.446 117.269 139.629 117.907C141.295 118.394 142.987 118.516 144.709 118.276C145.909 118.109 147.068 117.788 148.207 117.389C149.345 116.99 150.451 116.511 151.534 115.98C151.662 115.917 151.785 115.813 151.958 115.845L153.171 112.62C153.1 112.66 153.041 112.693 152.984 112.714Z" fill="white"/>
<path d="M158.194 92.6728C156.997 90.2218 155.242 88.2538 152.962 86.7588C151.748 85.9628 150.432 85.3928 149.013 85.0758C146.665 84.5508 144.457 84.8958 142.395 86.1488C141.922 86.4358 141.48 86.7608 141.057 87.1078C140.032 88.1948 139.465 89.5988 138.478 91.2738C138.654 90.9908 138.834 90.7088 139.025 90.4318C139.263 90.0848 139.561 89.8938 139.954 89.7958C141.258 89.4708 142.569 89.4268 143.881 89.7188C147.526 90.5298 150.243 92.5998 152.079 95.8308C153.087 97.6038 153.705 99.5248 154.099 101.52C154.614 104.13 154.558 106.739 154.037 109.34C153.858 110.235 153.621 111.117 153.405 112.004C153.359 112.192 153.293 112.375 153.227 112.593C153.206 112.604 153.192 112.612 153.173 112.622L151.96 115.847C151.962 115.847 151.964 115.846 151.966 115.846C152.024 116.05 151.916 116.203 151.851 116.354C151.653 116.815 151.448 117.273 151.251 117.734C150.92 118.506 150.595 119.281 150.246 120.045C149.195 122.344 148.12 124.632 147.055 126.925C146.669 127.755 146.355 128.613 146.082 129.486C145.714 130.663 145.493 131.867 145.505 133.102C145.526 135.166 145.662 137.222 146.056 139.254C146.256 140.287 146.528 141.3 146.961 142.264C147.097 142.566 147.263 142.841 147.512 143.1C149.146 141.477 151.11 140.308 152.9 138.893C152.871 138.809 152.853 138.735 152.822 138.667C152.241 137.401 151.931 136.06 151.711 134.692C151.473 133.21 151.373 131.717 151.311 130.22C151.257 128.911 151.365 127.616 151.725 126.35C151.981 125.452 152.273 124.565 152.657 123.713C153.247 122.401 153.84 121.09 154.449 119.786C155.683 117.144 156.962 114.522 158.004 111.794L159.221 108.49C159.198 108.226 159.301 108.011 159.359 107.793C159.834 106.022 160.16 104.224 160.236 102.391C160.377 98.9808 159.69 95.7378 158.194 92.6728Z" fill="white"/>
<path d="M265.772 16.293C264.742 16.839 263.707 17.378 262.684 17.938C260.414 19.181 258.253 20.6 256.127 22.074C254.961 22.883 253.792 23.687 252.716 24.618C251.634 25.554 250.68 26.603 249.982 27.855C249.581 28.576 249.086 29.218 248.55 29.835C248.308 30.114 248.048 30.377 247.79 30.641C247.229 31.215 246.731 31.834 246.291 32.494C247.171 31.381 248.353 30.66 250.357 29.335C251.602 28.471 252.83 27.58 254.084 26.73C256.178 25.312 258.334 23.997 260.585 22.84C261.224 22.512 261.856 22.171 262.431 21.868C263.648 19.863 265.275 18.281 266.671 16.475C266.476 16.368 266.295 16.268 266.095 16.158C265.951 16.219 265.857 16.248 265.772 16.293Z" fill="white"/>
<path d="M245.525 33.81C244.163 36.615 243.567 39.577 243.779 42.693C243.959 45.336 244.602 47.874 245.564 50.334C246.416 52.512 247.475 54.589 248.683 56.591C250.622 59.806 252.725 62.913 254.928 65.952C256.459 68.064 257.87 70.251 259.073 72.569C259.754 73.883 260.372 75.224 260.835 76.632C261.537 78.77 261.894 80.974 262.043 83.214C262.279 86.747 262.016 90.247 261.36 93.722C260.607 97.707 259.502 101.596 258.077 105.39C257.161 107.829 256.17 110.241 255.213 112.665C254.47 114.547 253.762 116.441 253.203 118.388C252.616 120.435 252.217 122.511 252.239 124.65C252.245 125.193 252.31 125.735 252.356 126.277C252.39 126.68 252.621 126.934 252.987 127.102C254.194 125.154 255.803 123.558 257.186 121.792C256.987 120.36 256.964 119.869 257.017 118.762C257.092 117.221 257.361 115.711 257.754 114.223C258.251 112.34 258.894 110.505 259.606 108.694C260.56 106.269 261.549 103.857 262.485 101.425C263.856 97.862 264.965 94.219 265.776 90.486C266.526 87.034 266.958 83.551 266.876 80.012C266.837 78.338 266.698 76.674 266.42 75.021C265.977 72.387 265.057 69.922 263.818 67.563C262.622 65.285 261.251 63.12 259.742 61.039C257.664 58.174 255.674 55.249 253.82 52.233C252.504 50.093 251.325 47.884 250.398 45.544C249.52 43.327 248.902 41.049 248.621 38.674C248.275 35.752 248.666 32.937 249.7 30.195C249.837 29.832 250.041 29.554 250.356 29.335C248.352 30.66 247.169 31.381 246.29 32.494C246.01 32.916 245.749 33.35 245.525 33.81Z" fill="white"/>
<path d="M188.596 111.623C188.242 111.488 187.813 111.549 187.259 111.507C187.138 112.105 187.011 112.631 186.928 113.164C186.805 113.958 186.868 114.817 186.581 115.542C185.479 118.332 183.769 120.645 180.99 122.006C179.825 122.577 178.645 123.118 177.492 123.713C177.08 123.925 176.73 124.257 176.47 124.447C176.234 125.361 176.634 125.844 177.086 126.339C178.287 127.654 179.45 129.005 180.651 130.32C181.081 130.791 181.576 131.203 181.952 131.558C183.28 131.763 184.128 131.103 184.944 130.442C186.966 128.801 188.699 126.875 190.32 124.845C192.375 122.273 193.77 119.367 194.667 116.215C194.819 115.682 194.869 115.119 194.955 114.632C194.746 114.345 194.646 114.05 194.456 113.971C192.513 113.164 190.562 112.374 188.596 111.623Z" fill="white"/>
<path d="M53.8701 246.114C53.5021 245.836 52.8151 245.982 52.4431 245.949C52.1981 246.131 52.1181 246.167 52.0721 246.228C51.9251 246.421 51.7651 246.61 51.6541 246.823C49.5161 250.957 46.4761 254.239 42.4701 256.627C41.8541 256.994 41.1821 257.338 40.8281 258.25C40.8901 258.485 40.8831 258.95 41.1091 259.22C41.9381 260.213 42.8211 261.165 43.7321 262.085C44.2411 262.6 44.9431 262.644 45.5371 262.296C46.3691 261.808 47.1831 261.259 47.9081 260.625C50.6641 258.218 53.0731 255.477 55.3281 252.606C56.0691 251.663 56.8141 250.697 57.2991 249.535C56.4581 248.048 55.1461 247.078 53.8701 246.114Z" fill="white"/>
<path d="M298.855 86.951C298.552 86.484 298.102 86.111 297.715 85.698C296.078 83.95 294.893 81.965 294.449 79.576C294.347 79.027 294.147 78.497 293.983 77.925C292.232 76.903 290.712 77.721 288.892 78.377C288.746 79.401 288.461 80.283 288.527 81.138C288.764 84.23 289.49 87.21 291.091 89.908C291.619 90.798 292.133 91.743 293.265 92.237C293.59 92.139 294.03 92.115 294.332 91.899C295.967 90.729 297.655 89.618 299.127 88.142C299.035 87.696 299.052 87.254 298.855 86.951Z" fill="white"/>
<path d="M69.5181 76.042C69.5181 78.985 67.1321 81.371 64.1891 81.371C61.2461 81.371 58.8601 78.985 58.8601 76.042C58.8601 73.099 61.2461 70.713 64.1891 70.713C67.1321 70.713 69.5181 73.099 69.5181 76.042Z" fill="white"/>
<path d="M388.223 164.302C388.223 167.245 385.837 169.631 382.894 169.631C379.951 169.631 377.565 167.245 377.565 164.302C377.565 161.359 379.951 158.973 382.894 158.973C385.837 158.973 388.223 161.358 388.223 164.302Z" fill="white"/>
<path d="M219.743 10.334C219.743 13.277 217.357 15.663 214.414 15.663C211.471 15.663 209.085 13.277 209.085 10.334C209.085 7.39101 211.471 5.005 214.414 5.005C217.357 5.005 219.743 7.39001 219.743 10.334Z" fill="white"/>
<path d="M234.239 223.608C232.6 222.265 230.711 221.218 229.411 219.393C229.059 219.554 228.72 219.611 228.534 219.811C227.851 220.545 227.198 221.31 226.58 222.099C226.361 222.379 226.274 222.761 226.117 223.118C226.282 223.429 226.388 223.735 226.58 223.968C226.977 224.451 227.412 224.905 227.848 225.355C228.894 226.436 229.997 227.466 230.99 228.594C232.107 229.863 233.129 231.216 234.19 232.535C234.501 232.922 234.744 233.393 235.663 233.4C236.884 232.23 238.188 230.844 239.29 229.199C239.028 228.755 238.846 228.36 238.588 228.022C237.324 226.366 235.847 224.926 234.239 223.608Z" fill="white"/>
<path d="M389.85 211.4C387.35 210.109 385.251 208.381 383.724 205.994C382.94 204.768 382.145 203.548 381.201 202.087C380.669 202.116 380.138 202.005 379.748 202.19C377.198 203.396 376.754 204.719 378.077 207.244C379.438 209.841 381.14 212.22 383.118 214.375C384.209 215.564 385.468 216.602 386.673 217.684C387.158 218.12 387.709 218.469 388.667 218.363C390.308 217.112 391.221 215.162 392.134 213.371C391.707 212.091 390.692 211.835 389.85 211.4Z" fill="white"/>
<path d="M31.6169 116.943C30.5579 116.106 29.7069 114.965 28.2169 114.499C27.9439 114.801 27.6079 115.045 27.4549 115.374C27.2909 115.727 27.2879 116.159 27.2309 116.559C26.8279 119.372 25.3119 121.508 23.1269 123.21C22.3639 123.805 21.5159 124.291 20.7019 124.821C20.1669 125.169 19.6259 125.507 19.2089 125.772C18.7409 126.795 19.1069 127.498 19.6019 128.176C20.6519 129.615 21.6719 131.078 22.7669 132.482C23.0859 132.892 23.6169 133.137 24.1389 133.523C24.9649 132.966 25.7739 132.561 26.4039 131.966C28.2289 130.244 30.0129 128.476 31.7479 126.664C32.4699 125.91 33.1049 125.043 33.6389 124.145C34.4219 122.827 35.1179 121.445 34.9079 119.706C33.7249 118.708 32.6949 117.795 31.6169 116.943Z" fill="white"/>
<path d="M306.727 -0.369947C304.756 -0.705947 303.08 -0.940947 301.428 -1.28795C299.839 -1.62195 298.335 -2.24395 296.959 -3.10595C295.537 -3.99695 294.17 -4.97395 292.693 -5.97095C292.269 -5.61695 291.805 -5.38895 291.6 -5.01795C291.335 -4.53995 291.225 -3.95495 291.14 -3.40295C290.83 -1.39795 290.34 0.549052 289.471 2.39405C289.38 2.58605 289.46 2.85905 289.46 3.04505C289.601 3.21805 289.678 3.39705 289.808 3.45205C290.1 3.57605 290.415 3.69905 290.727 3.71605C293.979 3.89105 297.084 4.78605 300.212 5.58605C301.697 5.96605 303.198 6.28205 304.699 6.59205C305.365 6.72905 305.987 6.59305 306.542 5.86105C306.667 3.90905 307.747 1.83505 306.727 -0.369947Z" fill="white"/>
<path d="M134.614 28.616C134.247 28.338 133.559 28.484 133.187 28.451C132.942 28.633 132.863 28.669 132.816 28.73C132.669 28.923 132.509 29.112 132.398 29.325C130.26 33.459 127.22 36.741 123.214 39.13C122.598 39.497 121.927 39.841 121.572 40.753C121.634 40.988 121.627 41.453 121.853 41.723C122.682 42.716 123.565 43.668 124.476 44.588C124.986 45.103 125.687 45.147 126.281 44.799C127.113 44.311 127.927 43.762 128.652 43.128C131.408 40.721 133.817 37.98 136.073 35.109C136.814 34.166 137.559 33.2 138.044 32.037C137.201 30.55 135.889 29.58 134.614 28.616Z" fill="white"/>
<path d="M202.329 202.167C202.871 202.121 203.398 201.895 203.89 201.764C204.759 200.097 205.069 198.463 204.731 196.723C204.616 196.133 204.328 195.667 203.749 195.517C202.106 195.788 200.52 196.163 198.916 196.282C197.227 196.407 195.507 196.414 193.826 196.236C192.238 196.068 190.683 195.592 189.158 195.262C187.908 196.307 187.646 197.646 187.342 198.891C187.805 200.147 188.849 200.441 189.848 200.759C193.914 202.052 198.078 202.528 202.329 202.167Z" fill="white"/>
<path d="M227.29 149.315C227.29 152.01 225.105 154.195 222.41 154.195C219.715 154.195 217.53 152.01 217.53 149.315C217.53 146.62 219.715 144.435 222.41 144.435C225.106 144.435 227.29 146.62 227.29 149.315Z" fill="white"/>
<path d="M26.6581 298.654C26.6581 300.511 25.1531 302.016 23.2961 302.016C21.4391 302.016 19.9341 300.511 19.9341 298.654C19.9341 296.797 21.4391 295.292 23.2961 295.292C25.1521 295.292 26.6581 296.798 26.6581 298.654Z" fill="white"/>
<path d="M-3.7419 55.809C-2.8329 55.225 1.2581 52.913 -1.9839 54.515C-3.5449 55.286 -5.1189 56.196 -6.6709 57.214L-4.2809 56.159C-4.1169 56.052 -3.9399 55.936 -3.7419 55.809Z" fill="white"/>
<path d="M-2.78412 137.473C-7.72212 136.641 -14.0101 135.262 -15.8281 129.804C-16.9291 126.498 -15.7991 123.015 -14.4641 119.96C-10.8221 111.627 -4.59211 104.718 2.87389 99.6271C2.88289 99.6211 2.87388 99.6141 2.87589 99.6071L-4.81612 99.9451C-12.5781 105.47 -19.6701 113.42 -22.5331 122.624C-25.6741 132.718 -16.9691 136.4 -8.83112 137.942L-1.79312 137.764C-1.97412 137.591 -2.86912 137.458 -2.78412 137.473Z" fill="white"/>
<path d="M-3.74208 55.8091C-3.94008 55.9361 -4.11708 56.0521 -4.28108 56.1591C-4.60208 56.3691 -4.86009 56.5371 -5.09309 56.6761C-5.64309 57.0061 -6.03708 57.1621 -6.67108 57.2141C-7.86508 58.0691 -8.82909 58.7831 -9.56909 59.3421C-3.82709 59.7021 1.80991 58.1531 4.96791 53.9221C4.96491 53.9191 4.96191 53.9161 4.95891 53.9131C3.49391 53.6121 1.23191 53.3581 -0.773087 53.9871C-0.966086 54.1771 -3.11308 55.4051 -3.74208 55.8091Z" fill="white"/>
<path d="M-16.712 54.162C-21.349 50.499 -21.9851 45.902 -20.3471 40.497C-17.1961 30.101 -9.53204 21.783 0.207956 17.166C0.787956 16.891 -2.08804 16.519 -2.22904 16.51C-3.50004 16.426 -5.33505 16.247 -6.53805 16.818C-13.283 20.015 -19.023 24.878 -23.062 31.178C-26.858 37.099 -31.013 46.085 -25.691 52.28C-23.344 55.012 -19.5901 57.129 -15.4381 58.321C-15.6621 58.488 -15.883 58.661 -16.104 58.832L-12.714 56.441C-14.108 55.942 -15.404 55.195 -16.712 54.162Z" fill="white"/>
<path d="M-2.26003 98.992C-13.066 99.547 -25.335 88.819 -22.666 77.59C-21.13 71.127 -16.639 65.217 -11.253 60.652L-11.256 60.648C-11.256 60.648 -11.203 60.606 -11.126 60.544C-10.636 60.132 -10.142 59.727 -9.64004 59.338C-9.61604 59.34 -9.59203 59.34 -9.56803 59.341C-8.82903 58.782 -7.86503 58.068 -6.67003 57.213C-5.11903 56.194 -3.54404 55.284 -1.98304 54.514C-1.57804 54.314 -1.28703 54.175 -1.09003 54.086C-0.801033 53.955 -0.718025 53.935 -0.770025 53.985C1.23497 53.356 3.49697 53.61 4.96197 53.911C4.92397 53.868 4.88496 53.826 4.84696 53.783C0.192963 50.251 -7.19403 53.119 -11.532 55.706C-11.927 55.942 -12.321 56.189 -12.714 56.44L-16.104 58.831C-21.654 63.116 -26.525 68.842 -28.934 75.239C-32.002 83.386 -27.94 90.886 -20.962 95.324C-16.04 98.454 -10.486 99.675 -4.81504 99.944L2.87696 99.606C2.93196 99.374 -1.67803 98.962 -2.26003 98.992Z" fill="white"/>
</g>
</svg>
