<svg width="101" height="100" viewBox="0 0 101 100" fill="none" xmlns="http://www.w3.org/2000/svg">
<g style="mix-blend-mode:luminosity">
<path d="M76.5531 6.3779C79.956 11.1418 76.1071 18.9638 81.1195 22.5208C85.9986 25.9834 91.8866 20.1617 96.4819 23.1381C103.299 27.5534 102.278 48.0956 92.515 60.955C89.5789 64.8222 87.1075 66.3409 86.0516 70.6907C83.7843 80.0309 92.1554 85.4848 90.6219 90.1087C87.1692 100.52 32.4816 109.801 10.1737 78.8557C-0.245002 64.403 -2.00215 43.3933 7.00171 27.3275C23.2717 -1.70307 68.9176 -4.31142 76.5531 6.3779Z" fill="#F4F7FA"/>
<g opacity="0.3">
<path d="M64.2677 4.5494L17.0566 3.09997C13.3991 2.98769 10.3651 6.25948 10.3037 10.4084C10.2423 14.5573 13.1773 17.9689 16.8355 18.0279L64.0568 18.7895C67.3626 18.8428 70.0731 15.7174 70.131 11.8092C70.1889 7.9009 67.5728 4.65083 64.2677 4.5494Z" fill="url(#paint0_linear_365_613)"/>
<path d="M84.5068 12.1106C84.4501 15.9416 81.832 19.0055 78.6401 18.9538C75.4268 18.9017 72.8527 15.716 72.9101 11.8386C72.9675 7.9612 75.6342 4.89834 78.8468 4.99694C82.038 5.09494 84.5636 8.27955 84.5068 12.1106Z" fill="url(#paint1_linear_365_613)"/>
</g>
<g opacity="0.5">
<path d="M82.619 22.4575L47.0801 22.0091C44.3587 21.9748 42.1034 24.5233 42.0564 27.7014C42.0093 30.8795 44.1887 33.4584 46.9105 33.4614L82.4555 33.5005C84.9728 33.5033 87.0402 31.0451 87.0852 28.0102C87.1301 24.9752 85.1359 22.4892 82.619 22.4575Z" fill="url(#paint2_linear_365_613)"/>
<path d="M98.0901 28.058C98.0459 31.0428 96.0358 33.4602 93.5889 33.4574C91.1293 33.4546 89.1622 31.0098 89.2068 27.9968C89.2514 24.9839 91.2905 22.5667 93.7497 22.5977C96.1962 22.6285 98.1343 25.0732 98.0901 28.058Z" fill="url(#paint3_linear_365_613)"/>
</g>
<path d="M32.0735 71.8136C31.619 73.3827 30.6881 75.5967 29.7181 78.1351L56.3805 74.9998C51.4224 67.9492 45.183 60.8201 47.6056 45.6325C48.7425 38.5053 53.2937 25.2933 48.1964 18.6533C42.3892 11.0884 36.3742 16.6299 32.8408 10.5162C27.3182 0.960604 16.642 -3.86254 8.59242 3.76771C0.647772 11.2984 5.88517 29.6675 23.5179 46.5852C34.7929 60.1551 34.447 63.6204 32.0735 71.8136Z" fill="url(#paint4_linear_365_613)"/>
<mask id="mask0_365_613" style="mask-type:luminance" maskUnits="userSpaceOnUse" x="4" y="0" width="53" height="79">
<path d="M32.0735 71.8136C31.619 73.3827 30.6881 75.5967 29.7181 78.1351L56.3805 74.9998C51.4224 67.9492 45.183 60.8201 47.6056 45.6325C48.7425 38.5053 53.2937 25.2933 48.1964 18.6533C42.3892 11.0884 36.3742 16.6299 32.8408 10.5162C27.3182 0.960604 16.642 -3.86254 8.59242 3.76771C0.647772 11.2984 5.88517 29.6675 23.5179 46.5852C34.7929 60.1551 34.447 63.6204 32.0735 71.8136Z" fill="white"/>
</mask>
<g mask="url(#mask0_365_613)">
<g opacity="0.6">
<path d="M43.3205 74.9696C42.6059 71.5488 41.7586 68.3586 40.8615 64.981L40.5625 63.8549C40.0303 62.2551 39.549 60.6633 39.0835 59.1239C38.0325 55.6479 37.0397 52.3646 35.5075 49.0066C35.4412 48.8042 35.3869 48.6051 35.3295 48.3941C35.1242 47.6406 34.9118 46.8616 34.2748 46.2326L34.2565 46.2043C27.5279 28.077 16.9473 11.034 2.80859 -4.45094L2.92363 -4.55591C17.0715 10.9392 27.6607 27.994 34.3966 46.134C35.054 46.7906 35.2801 47.6205 35.4797 48.3532C35.5367 48.5622 35.5905 48.7598 35.6525 48.9502C37.1857 52.3095 38.18 55.5977 39.2326 59.0789C39.6977 60.6172 40.1787 62.208 40.7117 63.8104L41.0119 64.9411C41.9096 68.3207 42.7575 71.5129 43.4728 74.9378L43.3205 74.9696Z" fill="#FCFDFE"/>
<path d="M38.7452 58.5234C36.2326 49.772 38.0829 38.0858 40.0775 29.8232C42.2376 20.8753 45.0274 13.9038 45.0553 13.8345L45.1998 13.8926C45.1719 13.9619 42.3857 20.9247 40.2283 29.8619C38.2384 38.1055 36.3918 49.7622 38.8949 58.4805L38.7452 58.5234Z" fill="#FCFDFE"/>
<path d="M22.6343 21.8752C19.4506 12.7371 18.2255 2.40963 17.8229 -0.984089C17.7459 -1.6332 17.695 -2.06205 17.6709 -2.14159L17.8199 -2.18677C17.8469 -2.09777 17.8877 -1.75937 17.9775 -1.00234C18.3796 2.3872 19.6032 12.7019 22.7814 21.8239L22.6343 21.8752Z" fill="#FCFDFE"/>
<path d="M29.9675 35.8885C24.6771 28.6959 6.32729 25.9645 6.14258 25.9378L6.16486 25.7837C6.35022 25.8105 24.7643 28.5518 30.0929 35.7964L29.9675 35.8885Z" fill="#FCFDFE"/>
</g>
</g>
<path d="M23.9905 42.5904C25.5745 54.8229 31.0081 50.0919 36.5981 50.6601C43.9554 59.018 45.5403 67.3887 37.0097 75.7817L26.3654 75.4464C22.463 75.7227 17.7694 75.072 17.4187 69.8737C17.022 63.9946 17.9677 60.1197 11.0329 58.0251C4.0981 55.9304 0.648174 51.026 2.61914 44.7542C4.69332 38.1541 -2.89472 30.4786 1.43053 25.7112C8.96714 17.4044 22.341 29.8526 23.9905 42.5904Z" fill="url(#paint5_linear_365_613)"/>
<mask id="mask1_365_613" style="mask-type:luminance" maskUnits="userSpaceOnUse" x="0" y="23" width="43" height="53">
<path d="M23.9905 42.5904C25.5745 54.8229 31.0081 50.0919 36.5981 50.6601C43.9554 59.018 45.5403 67.3887 37.0097 75.7817L26.3654 75.4464C22.463 75.7227 17.7694 75.072 17.4187 69.8737C17.022 63.9946 17.9677 60.1197 11.0329 58.0251C4.0981 55.9304 0.648174 51.026 2.61914 44.7542C4.69332 38.1541 -2.89472 30.4786 1.43053 25.7112C8.96714 17.4044 22.341 29.8526 23.9905 42.5904Z" fill="white"/>
</mask>
<g mask="url(#mask1_365_613)">
<g opacity="0.6">
<path d="M29.165 64.2058C24.236 59.9416 19.8279 55.0772 16.0631 49.748C12.2659 44.3726 9.17405 38.5956 6.87355 32.5772C5.5544 29.1262 4.49226 25.577 3.7168 22.0283L3.87237 21.9944C4.6463 25.5352 5.70605 29.0766 7.0224 32.5204C9.31812 38.5263 12.4036 44.2916 16.1933 49.656C19.9506 54.9748 24.35 59.8295 29.2692 64.0853L29.165 64.2058Z" fill="#FCFDFE"/>
<path d="M18.6978 72.2577L18.6094 72.1251C20.4358 70.907 22.6367 69.8657 25.1511 69.0303C26.3493 68.6321 27.5494 68.3212 28.7183 68.1062L28.7472 68.2629C27.5855 68.4765 26.3925 68.7856 25.2015 69.1815C22.7004 70.0125 20.5123 71.0475 18.6978 72.2577Z" fill="#FCFDFE"/>
<path d="M18.5104 53.0039C12.4945 48.414 1.05268 50.2436 0.938145 50.2633L0.912109 50.106C1.028 50.0873 12.5363 48.2453 18.607 52.8772L18.5104 53.0039Z" fill="#FCFDFE"/>
<path d="M10.2468 40.1506C7.64984 32.005 12.7644 21.6376 12.8164 21.5339L12.9588 21.6053C12.9072 21.7085 7.82152 32.0189 10.3986 40.1022L10.2468 40.1506Z" fill="#FCFDFE"/>
</g>
</g>
<path d="M99.1513 90.9583L3.15625 90.1223V92.596C3.15625 93.2674 3.57496 93.8383 4.142 93.9401L31.2865 98.8113C31.6087 98.8691 31.9354 98.8845 32.2604 98.857L98.1081 93.303C98.696 93.2535 99.1513 92.6808 99.1513 91.9909V90.9583Z" fill="#97A6B7"/>
<path d="M68.2488 86.9483L4.21234 91.4737C3.06644 91.5546 2.13477 90.6942 2.13477 89.5516V43.7731C2.13477 42.6304 3.06644 41.7041 4.21234 41.7041H68.2488C69.1928 41.7041 69.9561 42.5415 69.9561 43.5744V84.9573C69.9562 85.9902 69.1929 86.8816 68.2488 86.9483Z" fill="#97A6B7"/>
<path d="M69.2703 86.9483L5.23386 91.4737C4.08793 91.5546 3.15625 90.6942 3.15625 89.5516V43.7731C3.15625 42.6304 4.08793 41.7041 5.23386 41.7041H69.2703C70.2144 41.7041 70.9776 42.5415 70.9776 43.5744V84.9573C70.9776 85.9902 70.2144 86.8816 69.2703 86.9483Z" fill="#97A6B7"/>
<path d="M67.275 84.031L7.63169 87.9619C6.69919 88.0233 5.94141 87.3171 5.94141 86.3843V46.3051C5.94141 45.3723 6.69919 44.613 7.63169 44.6091L67.275 44.3623C68.0538 44.3591 68.6837 45.0452 68.6837 45.8949V82.3998C68.6837 83.2494 68.0538 83.9796 67.275 84.031Z" fill="white"/>
<path d="M39.5139 42.9562C39.5139 43.3816 39.1843 43.7274 38.7773 43.7286C38.3698 43.7299 38.0391 43.3853 38.0391 42.959C38.0391 42.5327 38.3698 42.1868 38.7773 42.1865C39.1843 42.1862 39.5139 42.5308 39.5139 42.9562Z" fill="white"/>
<path opacity="0.48" d="M53.8417 74.3928C48.9051 71.7367 45.0234 75.1023 41.2774 71.7816C39.0062 69.7683 40.1213 68.267 37.3267 65.2585C34.2315 61.9262 32.2164 63.0463 29.1058 60.0473C25.1726 56.2552 27.1398 53.3049 23.7518 50.5823C19.6418 47.2794 15.2093 50.3365 11.2968 47.1688C9.60936 45.8027 8.68346 43.8165 8.19996 41.7041H4.37182C3.701 41.7041 3.15625 42.2478 3.15625 42.9185V90.3719C3.15625 91.0426 3.70104 91.5476 4.37182 91.5L69.6355 86.8674C69.9558 86.8447 70.2398 86.6577 70.422 86.3866C65.6445 86.2125 62.7095 84.6109 60.8333 82.9553C57.163 79.7164 57.7996 76.5223 53.8417 74.3928Z" fill="white"/>
<path d="M67.6725 86.7432L3.15625 91.5067L31.2865 96.5547C31.6087 96.6126 31.9354 96.6279 32.2604 96.6005L99.1513 90.9585L68.6988 86.7756C68.3582 86.7288 68.0147 86.718 67.6725 86.7432Z" fill="#D8DEE8"/>
<path opacity="0.3" d="M12.5703 91.6266L66.282 87.6018L82.9053 89.8667L29.6563 94.1691L12.5703 91.6266Z" fill="#D8DEE8"/>
<path d="M67.1124 55.7581L7.46289 56.6672V45.8247H67.1124V55.7581Z" fill="#D8DEE8"/>
<path d="M48.1982 75.0979L10.4072 76.7474V58.5553L48.1982 57.8762V75.0979Z" fill="#D8DEE8"/>
<path d="M64.6215 62.6213L50.4062 62.9862V57.8367L64.6215 57.5813V62.6213Z" fill="#D8DEE8"/>
<path d="M64.6215 74.3812L50.4062 75.0017V64.81L64.6215 64.4062V74.3812Z" fill="#D8DEE8"/>
<path d="M64.6213 76.6912L10.4072 79.2489V83.5695L64.6213 80.6812V76.6912Z" fill="#D8DEE8"/>
<path d="M28.1979 91.375C29.1846 92.6697 28.9271 94.6476 27.6216 95.7861C26.3139 96.9265 24.4427 96.799 23.4526 95.4999C22.4624 94.2006 22.7255 92.2179 24.0366 91.0819C25.3454 89.9477 27.211 90.08 28.1979 91.375ZM24.4734 94.6125C25.0382 95.3537 26.1058 95.427 26.8525 94.7768C27.5985 94.127 27.7462 92.9973 27.1825 92.2576C26.6187 91.5178 25.5529 91.4428 24.8057 92.0911C24.058 92.74 23.9085 93.8713 24.4734 94.6125Z" fill="url(#paint6_linear_365_613)"/>
<path d="M21.8408 77.8808C22.8262 79.1738 22.5642 81.1392 21.2546 82.2637C19.9425 83.3906 18.069 83.2534 17.0803 81.956C16.0917 80.6588 16.3592 78.6888 17.6747 77.5663C18.9875 76.446 20.8555 76.5879 21.8408 77.8808ZM18.1043 81.0794C18.6684 81.8196 19.7373 81.8985 20.4865 81.2559C21.2348 80.6142 21.3851 79.4916 20.8221 78.7529C20.2592 78.0143 19.1921 77.9338 18.4428 78.5742C17.6924 79.2153 17.5403 80.3394 18.1043 81.0794Z" fill="url(#paint7_linear_365_613)"/>
<path d="M5.43721 73.4152C6.42811 74.7154 6.15225 76.6882 4.82014 77.8149C3.48539 78.9439 1.58904 78.8026 0.594785 77.4979C-0.399429 76.1934 -0.11793 74.2158 1.22018 73.0912C2.55564 71.9689 4.44629 72.1149 5.43721 73.4152ZM1.63643 76.6197C2.20368 77.364 3.28561 77.4452 4.04778 76.8015C4.80896 76.1586 4.96718 75.0317 4.401 74.2888C3.83493 73.546 2.75478 73.4632 1.9925 74.1047C1.22925 74.747 1.06921 75.8754 1.63643 76.6197Z" fill="url(#paint8_linear_365_613)"/>
<path d="M18.9319 60.2536C19.9128 61.5407 19.6498 63.4839 18.3434 64.5872C17.0345 65.6927 15.1674 65.5428 14.1832 64.2514C13.1989 62.9599 13.4674 61.0121 14.7796 59.9109C16.0893 58.8119 17.9509 58.9664 18.9319 60.2536ZM15.2047 63.3915C15.7661 64.1282 16.8315 64.2143 17.5788 63.5839C18.3253 62.9543 18.4761 61.8444 17.9158 61.1091C17.3553 60.3737 16.2918 60.286 15.5443 60.9142C14.7958 61.5432 14.6432 62.6546 15.2047 63.3915Z" fill="url(#paint9_linear_365_613)"/>
<path d="M39.9259 70.8704L40.685 71.8664L32.5915 78.8534L27.2819 91.8482L26.1162 91.3951L31.5675 78.0762L39.9259 70.8704Z" fill="url(#paint10_linear_365_613)"/>
<path d="M35.4211 64.96L36.1802 65.956L21.4946 78.5314L20.7275 77.5249L35.4211 64.96Z" fill="url(#paint11_linear_365_613)"/>
<path d="M30.9167 59.0493L31.6758 60.0454L22.0109 68.2543L10.6165 69.876L5.30453 74.3578L4.5332 73.3457L10.1511 68.6124L21.5456 66.9977L30.9167 59.0493Z" fill="url(#paint12_linear_365_613)"/>
<path d="M26.4125 53.1384L27.1717 54.1345L18.6426 61.3198L17.8789 60.3177L26.4125 53.1384Z" fill="url(#paint13_linear_365_613)"/>
<path d="M72.8604 5.52104C71.9221 4.28986 72.1336 2.47647 73.33 1.48008C74.5243 0.485577 76.2552 0.676256 77.1905 1.90354C78.1258 3.13097 77.9192 4.94029 76.728 5.93876C75.5346 6.93908 73.7988 6.7524 72.8604 5.52104ZM76.2638 2.67772C75.7295 1.97661 74.7406 1.86822 74.059 2.43668C73.3766 3.00579 73.2565 4.04061 73.7917 4.74297C74.3271 5.44551 75.3174 5.55254 75.9989 4.98215C76.6796 4.41247 76.7982 3.37894 76.2638 2.67772Z" fill="url(#paint14_linear_365_613)"/>
<path d="M79.1828 18.2272C78.2431 16.9942 78.4504 15.1695 79.6427 14.1611C80.8331 13.1543 82.5619 13.3365 83.4986 14.5656C84.4352 15.7946 84.2328 17.6152 83.0453 18.6259C81.856 19.6382 80.1224 19.4601 79.1828 18.2272ZM82.5749 15.3492C82.0398 14.647 81.0522 14.5435 80.3727 15.119C79.6927 15.6949 79.575 16.7361 80.1111 17.4396C80.6471 18.1429 81.6362 18.2452 82.3153 17.6679C82.9938 17.0912 83.11 16.0513 82.5749 15.3492Z" fill="url(#paint15_linear_365_613)"/>
<path d="M94.3373 22.7675C93.4025 21.541 93.5978 19.7226 94.7707 18.7155C95.9417 17.71 97.6507 17.888 98.5824 19.1107C99.5143 20.3333 99.3237 22.1477 98.1556 23.1571C96.9857 24.1681 95.2721 23.9941 94.3373 22.7675ZM97.6739 19.8933C97.1416 19.1948 96.1653 19.0936 95.4969 19.6684C94.8279 20.2436 94.717 21.2812 95.2503 21.981C95.7836 22.6808 96.7614 22.7807 97.4294 22.2042C98.0969 21.6282 98.2063 20.5918 97.6739 19.8933Z" fill="url(#paint16_linear_365_613)"/>
<path d="M82.2439 34.9146C81.3003 33.6764 81.5062 31.8318 82.701 30.8043C83.894 29.7786 85.6279 29.9496 86.5686 31.1838C87.5093 32.4182 87.3082 34.2586 86.1184 35.2884C84.9265 36.3198 83.1877 36.153 82.2439 34.9146ZM85.643 31.9822C85.1057 31.2772 84.1151 31.18 83.4342 31.7664C82.7528 32.3532 82.6359 33.4058 83.1742 34.1121C83.7126 34.8187 84.7047 34.9144 85.3852 34.3264C86.0651 33.7387 86.1805 32.6875 85.643 31.9822Z" fill="url(#paint17_linear_365_613)"/>
<path d="M62.1865 24.4366L61.4482 23.4678L69.0953 17.0344L73.8878 5.09741L74.977 5.55702L70.0725 17.7931L62.1865 24.4366Z" fill="url(#paint18_linear_365_613)"/>
<path d="M66.5674 30.1854L65.8291 29.2166L79.4911 17.6287L80.2221 18.5878L66.5674 30.1854Z" fill="url(#paint19_linear_365_613)"/>
<path d="M70.9483 35.9343L70.21 34.9655L79.2063 27.2725L89.7129 25.958L94.4304 21.8972L95.1575 22.8513L90.1717 27.149L79.6653 28.4699L70.9483 35.9343Z" fill="url(#paint20_linear_365_613)"/>
<path d="M75.3301 41.6829L74.5918 40.7142L82.4929 33.9026L83.2269 34.8658L75.3301 41.6829Z" fill="url(#paint21_linear_365_613)"/>
<path d="M77.9112 48.0774C77.9112 63.8753 65.5583 76.3027 49.7698 75.8178C33.3387 75.3133 19.5195 61.1225 19.5195 44.1408C19.5195 27.1592 33.3386 14.8317 49.7698 16.5426C65.5583 18.1866 77.9112 32.2795 77.9112 48.0774Z" fill="url(#paint22_linear_365_613)"/>
<path d="M82.1769 46.7151C82.1769 62.513 69.8239 74.9403 54.0355 74.4555C37.6043 73.9509 23.7852 59.7602 23.7852 42.7785C23.7852 25.7968 37.6043 13.4694 54.0355 15.1803C69.8239 16.8243 82.1769 30.9173 82.1769 46.7151Z" fill="url(#paint23_linear_365_613)"/>
<path d="M80.9382 46.6317C80.9382 61.7339 69.1187 73.5939 54.036 73.1055C38.3679 72.5982 25.2129 59.0554 25.2129 42.8749C25.2129 26.6944 38.3679 14.9253 54.036 16.5305C69.1187 18.0758 80.9382 31.5295 80.9382 46.6317Z" fill="url(#paint24_linear_365_613)"/>
<path d="M80.0508 46.5719C80.0508 61.1758 68.6139 72.6306 54.0361 72.1412C38.9122 71.6334 26.2295 58.5533 26.2295 42.9434C26.2295 27.3335 38.9122 15.9635 54.0361 17.4949C68.6139 18.9711 80.0508 31.968 80.0508 46.5719Z" fill="url(#paint25_linear_365_613)"/>
<path d="M63.6578 46.2127C62.8521 45.2511 61.6012 44.5523 59.8953 44.1159C60.6792 43.8174 61.3474 43.464 61.9015 43.0556C62.4536 42.6486 62.9048 42.2022 63.2555 41.7156C63.6054 41.2303 63.8614 40.7079 64.0244 40.1479C64.187 39.5887 64.2683 39.0071 64.2683 38.4027C64.2683 37.2928 64.0911 36.2836 63.7364 35.3735C63.3807 34.4618 62.811 33.6775 62.0251 33.0202C61.2353 32.3599 60.2104 31.8319 58.9464 31.4358C58.5254 31.3039 58.0707 31.1917 57.588 31.0957V26.6782L54.2131 26.5087V30.7282L51.3601 30.6188V26.3653L47.8641 26.1897V30.4846L44.1068 30.3405L42.7129 30.287V32.6403L44.1068 32.6848V56.5235L42.7129 56.5699V58.9232L44.1068 58.8678L47.8641 58.7187V62.5342L51.3601 62.3585V58.5799L54.2131 58.4667V62.2152L57.588 62.0456V58.1381C58.2086 58.0098 58.7941 57.8435 59.3409 57.6346C60.5548 57.1711 61.5686 56.5559 62.3863 55.7893C63.1999 55.0267 63.815 54.1463 64.2335 53.1476C64.651 52.1516 64.8593 51.0818 64.8593 49.9368C64.8593 48.4103 64.4597 47.1698 63.6578 46.2127ZM58.2808 39.0522C58.2808 39.7173 58.1817 40.2681 57.9833 40.7053C57.7845 41.1431 57.4951 41.4862 57.1146 41.7347C56.7332 41.9841 56.269 42.1576 55.7213 42.2552C55.1719 42.3534 54.5532 42.4004 53.8648 42.3966L50.5827 42.3784V35.4547L54.2708 35.5462C54.97 35.5636 55.5717 35.6354 56.0774 35.7615C56.5814 35.8872 56.9966 36.0861 57.3231 36.3579C57.6489 36.6293 57.8898 36.9832 58.0464 37.4196C58.2025 37.8556 58.2808 38.3999 58.2808 39.0522ZM58.8027 51.1998C58.6949 51.6281 58.497 52.0146 58.2087 52.3596C57.9201 52.7053 57.5192 52.9916 57.0057 53.2181C56.4905 53.4457 55.8247 53.5699 55.0067 53.5912L50.5827 53.7064V46.725L54.97 46.6961C55.7515 46.6909 56.3965 46.7624 56.9058 46.9101C57.4136 47.0574 57.8206 47.268 58.1275 47.5414C58.4339 47.8146 58.6499 48.1509 58.7757 48.5504C58.9014 48.9499 58.9643 49.3999 58.9643 49.9006C58.9643 50.3391 58.9105 50.7721 58.8027 51.1998Z" fill="url(#paint26_linear_365_613)"/>
<path opacity="0.3" d="M49.3285 50.1479C50.2074 41.4669 58.1856 37.7919 57.1445 29.8067C56.5027 24.8852 52.7725 20.7375 48.6112 17.499C35.9895 18.8227 26.2295 29.2738 26.2295 42.9432C26.2295 58.5531 38.9122 71.6332 54.0361 72.141C55.5046 72.1903 56.9387 72.1139 58.3332 71.9312C52.3269 65.9543 48.5734 57.606 49.3285 50.1479Z" fill="url(#paint27_linear_365_613)"/>
<path d="M88.6941 96.4087C88.744 96.134 89.631 95.8854 90.0701 96.2533C90.2883 96.436 90.4384 96.8062 90.3123 96.9735C90.2663 97.0343 90.4544 97.1413 90.2742 97.1434C89.6767 97.1503 88.6445 96.6816 88.6941 96.4087Z" fill="url(#paint28_linear_365_613)"/>
<path d="M89.6642 96.4098L90.5844 96.4557C90.2656 95.8762 90.6489 94.2998 90.6489 94.2998L89.6553 94.329C89.6553 94.329 89.6797 94.7866 89.7403 95.4664C89.7611 95.6991 89.7228 96.0497 89.6642 96.4098Z" fill="url(#paint29_linear_365_613)"/>
<path d="M89.5431 96.3961C89.5431 96.3961 90.6413 96.1431 90.7601 96.3609C90.8789 96.5788 90.9712 97.1621 90.2744 97.1433C89.5775 97.1244 89.4812 96.5808 89.5431 96.3961Z" fill="url(#paint30_linear_365_613)"/>
<path d="M77.0466 98.4009C77.1344 98.136 78.0475 98.014 78.4309 98.4397C78.6212 98.6511 78.7181 99.0387 78.5697 99.1866C78.5158 99.2405 78.6869 99.3728 78.5083 99.3496C77.9157 99.2729 76.9593 98.6642 77.0466 98.4009Z" fill="url(#paint31_linear_365_613)"/>
<path d="M78.125 98.6559L79.029 98.8333C78.7967 98.214 79.4021 96.7089 79.4021 96.7089L78.4147 96.5952C78.4147 96.5952 78.3732 97.0517 78.3357 97.7331C78.3227 97.9664 78.2346 98.3079 78.125 98.6559Z" fill="url(#paint32_linear_365_613)"/>
<path d="M77.8892 98.5073C77.8892 98.5073 79.0121 98.4105 79.0992 98.6428C79.1863 98.8751 79.196 99.4656 78.5087 99.3495C77.8214 99.2333 77.802 98.6816 77.8892 98.5073Z" fill="url(#paint33_linear_365_613)"/>
<path d="M86.1943 66.8354C86.4406 71.0453 86.7853 75.4232 87.2498 79.9538C87.7878 85.2025 88.4414 90.2175 89.1743 94.9839C90.0777 95.2937 90.9126 94.9839 90.9126 94.9839C90.9126 94.9839 91.9689 93.2538 92.7751 88.6554C93.2923 85.705 93.328 85.7422 93.3338 85.2275C93.3631 82.6309 92.4521 81.8792 92.2784 79.5583C92.1178 77.411 92.8013 76.7679 93.2097 74.3505C93.5237 72.4916 93.6414 69.7827 92.6509 66.2422C90.4987 66.4399 88.3466 66.6377 86.1943 66.8354Z" fill="url(#paint34_linear_365_613)"/>
<path opacity="0.3" d="M86.1943 66.8355C86.4406 71.0454 86.7853 75.4233 87.2498 79.9539C87.7878 85.2025 88.4414 90.2176 89.1743 94.984C90.0777 95.2938 90.9126 94.984 90.9126 94.984C90.9011 94.5428 90.8703 93.878 90.7782 93.0749C90.5338 90.9449 90.1443 90.3388 90.1043 89.0317C90.0532 87.3601 90.6584 87.3086 90.7782 85.6624C90.9638 83.1108 89.5627 82.5057 89.4305 80.2715C89.2907 77.9108 90.7688 77.1339 91.9013 74.2067C92.5698 72.4787 93.1631 69.8843 92.6509 66.2422C90.4987 66.4399 88.3466 66.6377 86.1943 66.8355Z" fill="url(#paint35_linear_365_613)"/>
<path d="M81.6621 66.7036C80.4251 70.8705 79.2262 76.0464 78.558 82.0633C77.9094 87.9028 77.9212 93.0887 78.1855 97.3571C78.5787 97.4669 78.9719 97.5768 79.365 97.6867C81.6513 95.2946 82.4676 93.0959 82.7796 91.4901C83.2409 89.1147 82.5457 88.3092 83.152 85.623C83.2915 85.0051 83.4877 84.3414 85.7594 79.8879C87.9276 75.6373 88.3722 75.02 88.7394 73.4935C89.2636 71.3147 89.1253 69.3823 88.9256 68.088C86.5045 67.6265 84.0833 67.1651 81.6621 66.7036Z" fill="url(#paint36_linear_365_613)"/>
<path d="M71.913 57.6974L68.0333 48.6092C67.8394 48.1551 68.0998 47.6357 68.5795 47.5191L75.6864 45.7932C76.0705 45.6999 76.465 45.9015 76.6145 46.2674L80.183 55.0023C80.3607 55.4373 80.1265 55.9309 79.6772 56.0684L72.8816 58.1476C72.4911 58.2672 72.0734 58.073 71.913 57.6974Z" fill="#26264F"/>
<path d="M72.0886 57.2604L68.4646 48.7713C68.2835 48.3473 68.5267 47.8621 68.9748 47.7532L75.6131 46.1411C75.9718 46.0539 76.3404 46.2422 76.48 46.584L79.8133 54.743C79.9792 55.1493 79.7605 55.6103 79.3408 55.7388L72.9932 57.681C72.6285 57.7926 72.2383 57.6112 72.0886 57.2604Z" fill="url(#paint37_linear_365_613)"/>
<path d="M69.8516 54.7648L69.7352 53.6939L69.1182 52.5176C69.0341 52.3574 68.9902 52.1792 68.9902 51.9984V50.8303L69.7352 52.5531C69.7352 52.5531 70.2241 52.1107 70.4104 52.0177C70.5966 51.9245 70.5733 52.297 70.4337 52.4368C70.294 52.5764 70.5035 53.7172 70.3638 53.8336L70.4104 54.532L69.8516 54.7648Z" fill="url(#paint38_linear_365_613)"/>
<path d="M75.7649 47.9437C76.3443 46.527 77.5878 45.7123 78.2326 45.2897C79.7584 44.29 80.7352 44.4725 84.2391 43.9394C88.9087 43.2289 89.4676 42.5557 91.0371 43.1013C93.0986 43.818 94.1754 45.6894 94.6689 46.5469C97.1566 50.8702 94.2481 53.0676 94.9948 61.6794C95.2998 65.1965 96.0817 68.2529 94.2032 70.0604C93.8077 70.441 93.3653 70.6401 92.4805 71.0382C88.9713 72.6172 85.825 72.345 83.9131 72.1557C81.8094 71.9474 80.7461 71.8281 80.1882 71.0848C79.2972 69.8974 80.2144 68.3884 80.3745 65.7768C80.4894 63.9018 80.063 62.4159 79.2104 59.4444C77.2283 52.5362 74.6549 50.658 75.7649 47.9437Z" fill="url(#paint39_linear_365_613)"/>
<path d="M83.5809 41.3909C83.3684 40.6335 83.74 39.9321 83.8219 39.7809C84.1649 39.1482 84.2528 39.0617 84.4164 38.9522L84.6439 38.8119C84.6439 38.8119 84.6571 38.8066 84.671 38.8016C84.8169 38.7496 85.3145 38.7345 85.4153 38.7561C85.7373 38.8248 86.0801 40.1366 85.9822 41.9911C85.9956 42.0618 86.0084 42.1331 86.0209 42.2049C86.0716 42.4978 86.1119 42.7849 86.143 43.0656C86.1728 43.334 86.5535 43.3279 86.8231 43.3107C87.9173 43.2408 88.4528 43.334 88.4993 43.4969C88.5866 43.8023 87.2887 44.8006 85.6861 45.0252C83.5354 45.0412 81.7858 44.8122 81.9738 44.4735C82.0573 44.3232 83.7238 43.8877 84.1924 43.4562C84.6215 43.0609 84.5866 42.653 84.6219 42.3609C84.4918 42.2934 83.7374 41.9489 83.5809 41.3909Z" fill="url(#paint40_linear_365_613)"/>
<path d="M83.9766 38.285C83.9785 38.8595 84.2492 39.4732 84.3871 39.5718C84.4049 39.5845 84.5052 39.6637 84.5952 39.7991C84.6075 39.8175 84.6183 39.8391 84.628 39.867C84.7538 40.229 84.1781 40.6551 84.2893 40.8172C84.3699 40.9348 84.7611 40.7775 84.8077 40.8791C84.8515 40.9746 84.5264 41.1726 84.5761 41.287C84.6137 41.3735 84.8138 41.2944 84.94 41.4268C85.0029 41.4927 84.9845 41.545 85.0511 41.7466C85.0888 41.8606 85.1415 41.9853 85.1824 42.0547C85.3809 42.392 85.9433 42.5153 86.0515 42.3803C86.0816 42.3426 86.0558 42.311 86.0866 42.1848C86.0866 42.1848 86.1151 42.0678 86.1965 41.9325C86.3128 41.7392 86.5936 41.6009 86.877 41.3969C87.4017 41.019 87.5444 40.6969 87.5871 40.5881C87.6024 40.5494 87.6118 40.5201 87.6186 40.499C87.7551 40.0755 87.7557 39.4535 87.5653 39.071C87.2464 38.4302 86.5269 38.7344 85.938 38.0994C85.2585 37.3669 85.6632 36.3656 85.2945 36.255C84.8881 36.133 83.973 37.2226 83.9766 38.285Z" fill="#26264F"/>
<path d="M84.4959 40.6822C84.6367 40.4887 84.8842 40.6705 84.8856 40.9209C84.8871 41.1712 84.6445 41.4315 84.4092 41.3821C84.1738 41.3326 84.3064 40.9427 84.4959 40.6822Z" fill="url(#paint41_linear_365_613)"/>
<path d="M84.6096 40.2634L84.2829 40.6884C84.2829 40.6884 83.9307 41.209 83.7251 40.9238C83.5572 40.6907 83.5136 40.696 83.5033 40.7057C83.5014 40.7076 83.5009 40.7104 83.5004 40.7102C83.4975 40.7094 83.525 40.5942 83.5498 40.4929C83.4628 40.6178 83.343 40.8203 83.2704 41.0927C83.1999 41.3574 83.1243 41.6408 83.2737 41.913C83.2823 41.9287 83.4468 42.2185 83.754 42.2885C83.754 42.2885 83.8748 42.3161 84.3851 42.2264C84.3851 42.2264 83.8273 41.8216 83.8187 41.7255C83.7956 41.464 84.1583 41.3227 84.4275 40.7866C84.5313 40.5799 84.5824 40.3925 84.6096 40.2634Z" fill="#26264F"/>
<path opacity="0.3" d="M85.7288 69.6876C85.1098 68.4553 86.6265 66.8171 85.6356 64.9384C84.7941 63.3428 83.2655 63.7002 82.5626 62.2378C81.7137 60.4715 83.56 59.1513 83.4938 56.4641C83.4148 53.2517 80.6507 50.036 79.024 50.3181C77.9715 50.5005 77.8362 52.0707 77.0957 53.7897C77.751 55.2265 78.5166 57.0267 79.2102 59.4441C80.0628 62.4156 80.4892 63.9014 80.3742 65.7765C80.2142 68.3881 79.2969 69.8971 80.188 71.0845C80.7458 71.8278 81.8091 71.9471 83.9129 72.1554C85.8248 72.3447 88.9711 72.6169 92.4802 71.0379C92.9244 70.8381 93.257 70.6884 93.5282 70.5407C88.0457 71.364 86.2197 70.6651 85.7288 69.6876Z" fill="url(#paint42_linear_365_613)"/>
<path d="M69.6412 54.5554C69.9826 54.408 70.3241 54.2605 70.6656 54.1131C71.2426 54.7033 71.9787 55.2772 72.5979 55.0909C73.5208 54.8131 73.29 53.1153 74.4138 50.1321C75.687 46.752 77.1316 45.8833 77.8594 45.5691C78.2658 45.3936 78.5464 45.2771 78.8837 45.3595C80.4357 45.7389 80.9488 49.7832 80.5134 52.8094C80.268 54.5144 79.7869 57.8575 77.0445 59.4444C76.655 59.6698 74.5106 60.9107 72.3884 59.9333C70.5754 59.0983 69.4551 56.956 69.6412 54.5554Z" fill="url(#paint43_linear_365_613)"/>
</g>
<defs>
<linearGradient id="paint0_linear_365_613" x1="30.8003" y1="7.11842" x2="89.3653" y2="32.4472" gradientUnits="userSpaceOnUse">
<stop stop-color="#FF9085"/>
<stop offset="1" stop-color="#FB6FBB"/>
</linearGradient>
<linearGradient id="paint1_linear_365_613" x1="38.0122" y1="-5.62589" x2="93.624" y2="18.4256" gradientUnits="userSpaceOnUse">
<stop stop-color="#FF9085"/>
<stop offset="1" stop-color="#FB6FBB"/>
</linearGradient>
<linearGradient id="paint2_linear_365_613" x1="57.5287" y1="24.8586" x2="101.355" y2="43.8132" gradientUnits="userSpaceOnUse">
<stop offset="0.0036" stop-color="#E38DDD"/>
<stop offset="1" stop-color="#9571F6"/>
</linearGradient>
<linearGradient id="paint3_linear_365_613" x1="62.553" y1="14.5791" x2="105.045" y2="32.9566" gradientUnits="userSpaceOnUse">
<stop offset="0.0036" stop-color="#E38DDD"/>
<stop offset="1" stop-color="#9571F6"/>
</linearGradient>
<linearGradient id="paint4_linear_365_613" x1="64.9727" y1="93.3012" x2="-11.6987" y2="-39.2764" gradientUnits="userSpaceOnUse">
<stop stop-color="#AA80F9"/>
<stop offset="0.9964" stop-color="#6165D7"/>
</linearGradient>
<linearGradient id="paint5_linear_365_613" x1="7.96229" y1="31.3953" x2="48.0119" y2="97.3273" gradientUnits="userSpaceOnUse">
<stop offset="0.0036" stop-color="#E38DDD"/>
<stop offset="1" stop-color="#9571F6"/>
</linearGradient>
<linearGradient id="paint6_linear_365_613" x1="37.6437" y1="79.0739" x2="87.7808" y2="18.1408" gradientUnits="userSpaceOnUse">
<stop stop-color="#FF9085"/>
<stop offset="1" stop-color="#FB6FBB"/>
</linearGradient>
<linearGradient id="paint7_linear_365_613" x1="27.2159" y1="70.4933" x2="77.3532" y2="9.55994" gradientUnits="userSpaceOnUse">
<stop stop-color="#FF9085"/>
<stop offset="1" stop-color="#FB6FBB"/>
</linearGradient>
<linearGradient id="paint8_linear_365_613" x1="15.2208" y1="60.6236" x2="65.3579" y2="-0.309348" gradientUnits="userSpaceOnUse">
<stop stop-color="#FF9085"/>
<stop offset="1" stop-color="#FB6FBB"/>
</linearGradient>
<linearGradient id="paint9_linear_365_613" x1="16.8169" y1="61.9372" x2="66.9541" y2="1.004" gradientUnits="userSpaceOnUse">
<stop stop-color="#FF9085"/>
<stop offset="1" stop-color="#FB6FBB"/>
</linearGradient>
<linearGradient id="paint10_linear_365_613" x1="35.6319" y1="77.4183" x2="85.7692" y2="16.485" gradientUnits="userSpaceOnUse">
<stop stop-color="#FF9085"/>
<stop offset="1" stop-color="#FB6FBB"/>
</linearGradient>
<linearGradient id="paint11_linear_365_613" x1="28.5657" y1="71.6045" x2="78.7028" y2="10.6714" gradientUnits="userSpaceOnUse">
<stop stop-color="#FF9085"/>
<stop offset="1" stop-color="#FB6FBB"/>
</linearGradient>
<linearGradient id="paint12_linear_365_613" x1="19.9193" y1="64.49" x2="70.0565" y2="3.55679" gradientUnits="userSpaceOnUse">
<stop stop-color="#FF9085"/>
<stop offset="1" stop-color="#FB6FBB"/>
</linearGradient>
<linearGradient id="paint13_linear_365_613" x1="17.9095" y1="62.8358" x2="68.0467" y2="1.90261" gradientUnits="userSpaceOnUse">
<stop stop-color="#FF9085"/>
<stop offset="1" stop-color="#FB6FBB"/>
</linearGradient>
<linearGradient id="paint14_linear_365_613" x1="22.9586" y1="66.9908" x2="73.0956" y2="6.05775" gradientUnits="userSpaceOnUse">
<stop stop-color="#FF9085"/>
<stop offset="1" stop-color="#FB6FBB"/>
</linearGradient>
<linearGradient id="paint15_linear_365_613" x1="32.9478" y1="75.2095" x2="83.0848" y2="14.2765" gradientUnits="userSpaceOnUse">
<stop stop-color="#FF9085"/>
<stop offset="1" stop-color="#FB6FBB"/>
</linearGradient>
<linearGradient id="paint16_linear_365_613" x1="44.1918" y1="84.462" x2="94.3289" y2="23.5289" gradientUnits="userSpaceOnUse">
<stop stop-color="#FF9085"/>
<stop offset="1" stop-color="#FB6FBB"/>
</linearGradient>
<linearGradient id="paint17_linear_365_613" x1="42.9461" y1="83.437" x2="93.0832" y2="22.5039" gradientUnits="userSpaceOnUse">
<stop stop-color="#FF9085"/>
<stop offset="1" stop-color="#FB6FBB"/>
</linearGradient>
<linearGradient id="paint18_linear_365_613" x1="24.937" y1="68.6182" x2="75.0742" y2="7.68492" gradientUnits="userSpaceOnUse">
<stop stop-color="#FF9085"/>
<stop offset="1" stop-color="#FB6FBB"/>
</linearGradient>
<linearGradient id="paint19_linear_365_613" x1="31.6721" y1="74.1603" x2="81.8093" y2="13.2271" gradientUnits="userSpaceOnUse">
<stop stop-color="#FF9085"/>
<stop offset="1" stop-color="#FB6FBB"/>
</linearGradient>
<linearGradient id="paint20_linear_365_613" x1="39.8872" y1="80.9203" x2="90.0243" y2="19.9871" gradientUnits="userSpaceOnUse">
<stop stop-color="#FF9085"/>
<stop offset="1" stop-color="#FB6FBB"/>
</linearGradient>
<linearGradient id="paint21_linear_365_613" x1="41.9946" y1="82.6536" x2="92.1319" y2="21.7203" gradientUnits="userSpaceOnUse">
<stop stop-color="#FF9085"/>
<stop offset="1" stop-color="#FB6FBB"/>
</linearGradient>
<linearGradient id="paint22_linear_365_613" x1="38.7084" y1="49.3131" x2="4.65486" y2="60.2419" gradientUnits="userSpaceOnUse">
<stop stop-color="#FCB148"/>
<stop offset="0.0521" stop-color="#FDBA46"/>
<stop offset="0.1424" stop-color="#FFC244"/>
<stop offset="0.3183" stop-color="#FFC444"/>
<stop offset="0.4849" stop-color="#FDB946"/>
<stop offset="0.7754" stop-color="#F99C4D"/>
<stop offset="0.8658" stop-color="#F8924F"/>
<stop offset="1" stop-color="#F8924F"/>
</linearGradient>
<linearGradient id="paint23_linear_365_613" x1="66.255" y1="15.416" x2="35.8541" y2="82.4861" gradientUnits="userSpaceOnUse">
<stop stop-color="#FFDB44"/>
<stop offset="1" stop-color="#FEEF06"/>
</linearGradient>
<linearGradient id="paint24_linear_365_613" x1="60.6633" y1="86.2348" x2="54.7974" y2="54.1895" gradientUnits="userSpaceOnUse">
<stop stop-color="#FCB148"/>
<stop offset="0.0521" stop-color="#FDBA46"/>
<stop offset="0.1424" stop-color="#FFC244"/>
<stop offset="0.3183" stop-color="#FFC444"/>
<stop offset="0.4849" stop-color="#FDB946"/>
<stop offset="0.7754" stop-color="#F99C4D"/>
<stop offset="0.8658" stop-color="#F8924F"/>
<stop offset="1" stop-color="#F8924F"/>
</linearGradient>
<linearGradient id="paint25_linear_365_613" x1="48.2265" y1="34.366" x2="72.4008" y2="85.6833" gradientUnits="userSpaceOnUse">
<stop stop-color="#FCB148"/>
<stop offset="0.0521" stop-color="#FDBA46"/>
<stop offset="0.1424" stop-color="#FFC244"/>
<stop offset="0.3183" stop-color="#FFC444"/>
<stop offset="0.4849" stop-color="#FDB946"/>
<stop offset="0.7754" stop-color="#F99C4D"/>
<stop offset="0.8658" stop-color="#F8924F"/>
<stop offset="1" stop-color="#F8924F"/>
</linearGradient>
<linearGradient id="paint26_linear_365_613" x1="42.7129" y1="44.3619" x2="64.8593" y2="44.3619" gradientUnits="userSpaceOnUse">
<stop stop-color="#FFDB44"/>
<stop offset="1" stop-color="#FEEF06"/>
</linearGradient>
<linearGradient id="paint27_linear_365_613" x1="41.1146" y1="37.6867" x2="65.2401" y2="88.9005" gradientUnits="userSpaceOnUse">
<stop stop-color="#FCB148"/>
<stop offset="0.0521" stop-color="#FDBA46"/>
<stop offset="0.1424" stop-color="#FFC244"/>
<stop offset="0.3183" stop-color="#FFC444"/>
<stop offset="0.4849" stop-color="#FDB946"/>
<stop offset="0.7754" stop-color="#F99C4D"/>
<stop offset="0.8658" stop-color="#F8924F"/>
<stop offset="1" stop-color="#F8924F"/>
</linearGradient>
<linearGradient id="paint28_linear_365_613" x1="88.2014" y1="95.616" x2="90.1545" y2="96.9139" gradientUnits="userSpaceOnUse">
<stop stop-color="#444B8C"/>
<stop offset="0.9964" stop-color="#26264F"/>
</linearGradient>
<linearGradient id="paint29_linear_365_613" x1="90.0443" y1="96.908" x2="90.1962" y2="93.8595" gradientUnits="userSpaceOnUse">
<stop stop-color="#FFC444"/>
<stop offset="0.9964" stop-color="#F36F56"/>
</linearGradient>
<linearGradient id="paint30_linear_365_613" x1="88.3484" y1="95.3952" x2="90.3014" y2="96.693" gradientUnits="userSpaceOnUse">
<stop stop-color="#444B8C"/>
<stop offset="0.9964" stop-color="#26264F"/>
</linearGradient>
<linearGradient id="paint31_linear_365_613" x1="76.6698" y1="97.5471" x2="78.4219" y2="99.1056" gradientUnits="userSpaceOnUse">
<stop stop-color="#444B8C"/>
<stop offset="0.9964" stop-color="#26264F"/>
</linearGradient>
<linearGradient id="paint32_linear_365_613" x1="78.4295" y1="99.2035" x2="79.0174" y2="96.2083" gradientUnits="userSpaceOnUse">
<stop stop-color="#FFC444"/>
<stop offset="0.9964" stop-color="#F36F56"/>
</linearGradient>
<linearGradient id="paint33_linear_365_613" x1="76.8464" y1="97.349" x2="78.5984" y2="98.9075" gradientUnits="userSpaceOnUse">
<stop stop-color="#444B8C"/>
<stop offset="0.9964" stop-color="#26264F"/>
</linearGradient>
<linearGradient id="paint34_linear_365_613" x1="86.1943" y1="80.6818" x2="93.4341" y2="80.6818" gradientUnits="userSpaceOnUse">
<stop stop-color="#311944"/>
<stop offset="1" stop-color="#6B3976"/>
</linearGradient>
<linearGradient id="paint35_linear_365_613" x1="86.1943" y1="80.6819" x2="92.8444" y2="80.6819" gradientUnits="userSpaceOnUse">
<stop stop-color="#311944"/>
<stop offset="1" stop-color="#6B3976"/>
</linearGradient>
<linearGradient id="paint36_linear_365_613" x1="99.5867" y1="85.6369" x2="79.6702" y2="82.043" gradientUnits="userSpaceOnUse">
<stop stop-color="#311944"/>
<stop offset="0.7407" stop-color="#5C3169"/>
<stop offset="1" stop-color="#6B3976"/>
</linearGradient>
<linearGradient id="paint37_linear_365_613" x1="74.99" y1="52.168" x2="65.8865" y2="48.9378" gradientUnits="userSpaceOnUse">
<stop stop-color="#AA80F9"/>
<stop offset="0.9964" stop-color="#6165D7"/>
</linearGradient>
<linearGradient id="paint38_linear_365_613" x1="69.206" y1="51.8256" x2="75.9414" y2="62.6452" gradientUnits="userSpaceOnUse">
<stop stop-color="#FFC444"/>
<stop offset="0.9964" stop-color="#F36F56"/>
</linearGradient>
<linearGradient id="paint39_linear_365_613" x1="98.0367" y1="82.3894" x2="89.2531" y2="62.8703" gradientUnits="userSpaceOnUse">
<stop stop-color="#FF9085"/>
<stop offset="1" stop-color="#FB6FBB"/>
</linearGradient>
<linearGradient id="paint40_linear_365_613" x1="83.5587" y1="40.1847" x2="88.5204" y2="51.5677" gradientUnits="userSpaceOnUse">
<stop stop-color="#FFC444"/>
<stop offset="0.9964" stop-color="#F36F56"/>
</linearGradient>
<linearGradient id="paint41_linear_365_613" x1="83.188" y1="37.8476" x2="88.7278" y2="50.5569" gradientUnits="userSpaceOnUse">
<stop stop-color="#FFC444"/>
<stop offset="0.9964" stop-color="#F36F56"/>
</linearGradient>
<linearGradient id="paint42_linear_365_613" x1="75.0648" y1="55.8603" x2="87.4501" y2="67.687" gradientUnits="userSpaceOnUse">
<stop stop-color="#FF9085"/>
<stop offset="1" stop-color="#FB6FBB"/>
</linearGradient>
<linearGradient id="paint43_linear_365_613" x1="90.2856" y1="85.877" x2="81.502" y2="66.3578" gradientUnits="userSpaceOnUse">
<stop stop-color="#FF9085"/>
<stop offset="1" stop-color="#FB6FBB"/>
</linearGradient>
</defs>
</svg>
