<svg width="17" height="18" viewBox="0 0 17 18" fill="none" xmlns="http://www.w3.org/2000/svg">
<path fill-rule="evenodd" clip-rule="evenodd" d="M2.83333 0.722222C2.83333 0.596981 2.88309 0.47687 2.97164 0.388311C3.0602 0.299752 3.18031 0.25 3.30556 0.25H13.6944C13.8197 0.25 13.9398 0.299752 14.0284 0.388311C14.1169 0.47687 14.1667 0.596981 14.1667 0.722222V1.19444H16.5278C16.653 1.19444 16.7731 1.2442 16.8617 1.33276C16.9502 1.42131 17 1.54143 17 1.66667V4.5C17 5.12621 16.7512 5.72676 16.3084 6.16956C15.8657 6.61235 15.2651 6.86111 14.6389 6.86111H13.8441C13.5065 7.81356 12.9207 8.65859 12.1472 9.30893C11.3738 9.95928 10.4407 10.3913 9.44444 10.5605V13.4722H12.2778C12.403 13.4722 12.5231 13.522 12.6117 13.6105C12.7002 13.6991 12.75 13.8192 12.75 13.9444V16.7778C12.75 16.903 12.7002 17.0231 12.6117 17.1117C12.5231 17.2002 12.403 17.25 12.2778 17.25H4.72222C4.59698 17.25 4.47687 17.2002 4.38831 17.1117C4.29975 17.0231 4.25 16.903 4.25 16.7778V13.9444C4.25 13.8192 4.29975 13.6991 4.38831 13.6105C4.47687 13.522 4.59698 13.4722 4.72222 13.4722H7.55556V10.5605C6.55928 10.3913 5.62624 9.95928 4.85278 9.30893C4.07933 8.65859 3.49352 7.81356 3.15586 6.86111H2.36111C1.73491 6.86111 1.13435 6.61235 0.691553 6.16956C0.248759 5.72676 0 5.12621 0 4.5V1.66667C0 1.54143 0.0497519 1.42131 0.138311 1.33276C0.22687 1.2442 0.346981 1.19444 0.472222 1.19444H2.83333V0.722222ZM14.1667 4.97222V2.13889H16.0556V4.5C16.0556 4.87572 15.9063 5.23606 15.6406 5.50173C15.3749 5.76741 15.0146 5.91667 14.6389 5.91667H14.1667V4.97222ZM2.83333 2.13889H0.944444V4.5C0.944444 4.87572 1.0937 5.23606 1.35938 5.50173C1.62505 5.76741 1.98539 5.91667 2.36111 5.91667H2.83333V2.13889Z" fill="white" fill-opacity="0.2"/>
</svg>
