<svg width="17" height="17" viewBox="0 0 17 17" fill="none" xmlns="http://www.w3.org/2000/svg">
<path d="M9.71429 15.2955H15.7857V13.8409H9.71429V15.2955ZM6.07143 9.47727H15.7857V8.02273H6.07143V9.47727ZM12.1429 3.65909H15.7857V2.20455H12.1429V3.65909ZM17 13.1136V16.0227C17 16.2197 16.9399 16.3902 16.8198 16.5341C16.6996 16.678 16.5573 16.75 16.3929 16.75H0.607143C0.442708 16.75 0.300409 16.678 0.180246 16.5341C0.0600818 16.3902 0 16.2197 0 16.0227V13.1136C0 12.9167 0.0600818 12.7462 0.180246 12.6023C0.300409 12.4583 0.442708 12.3864 0.607143 12.3864H16.3929C16.5573 12.3864 16.6996 12.4583 16.8198 12.6023C16.9399 12.7462 17 12.9167 17 13.1136ZM17 7.29545V10.2045C17 10.4015 16.9399 10.572 16.8198 10.7159C16.6996 10.8598 16.5573 10.9318 16.3929 10.9318H0.607143C0.442708 10.9318 0.300409 10.8598 0.180246 10.7159C0.0600818 10.572 0 10.4015 0 10.2045V7.29545C0 7.09848 0.0600818 6.92803 0.180246 6.78409C0.300409 6.64015 0.442708 6.56818 0.607143 6.56818H16.3929C16.5573 6.56818 16.6996 6.64015 16.8198 6.78409C16.9399 6.92803 17 7.09848 17 7.29545ZM17 1.47727V4.38636C17 4.58333 16.9399 4.75379 16.8198 4.89773C16.6996 5.04167 16.5573 5.11364 16.3929 5.11364H0.607143C0.442708 5.11364 0.300409 5.04167 0.180246 4.89773C0.0600818 4.75379 0 4.58333 0 4.38636V1.47727C0 1.2803 0.0600818 1.10985 0.180246 0.965909C0.300409 0.82197 0.442708 0.75 0.607143 0.75H16.3929C16.5573 0.75 16.6996 0.82197 16.8198 0.965909C16.9399 1.10985 17 1.2803 17 1.47727Z" fill="white" fill-opacity="0.2"/>
</svg>
