<svg width="16" height="17" viewBox="0 0 16 17" fill="none" xmlns="http://www.w3.org/2000/svg">
<path fill-rule="evenodd" clip-rule="evenodd" d="M4.44444 4.30556C4.44444 3.36256 4.81905 2.45819 5.48584 1.7914C6.15264 1.1246 7.05701 0.75 8 0.75C8.94299 0.75 9.84736 1.1246 10.5142 1.7914C11.181 2.45819 11.5556 3.36256 11.5556 4.30556C11.5556 5.24855 11.181 6.15292 10.5142 6.81971C9.84736 7.48651 8.94299 7.86111 8 7.86111C7.05701 7.86111 6.15264 7.48651 5.48584 6.81971C4.81905 6.15292 4.44444 5.24855 4.44444 4.30556ZM4.44444 9.63889C3.2657 9.63889 2.13524 10.1071 1.30175 10.9406C0.468253 11.7741 0 12.9046 0 14.0833C0 14.7906 0.280952 15.4689 0.781049 15.969C1.28115 16.469 1.95942 16.75 2.66667 16.75H13.3333C14.0406 16.75 14.7189 16.469 15.219 15.969C15.719 15.4689 16 14.7906 16 14.0833C16 12.9046 15.5317 11.7741 14.6983 10.9406C13.8648 10.1071 12.7343 9.63889 11.5556 9.63889H4.44444Z" fill="white" fill-opacity="0.2"/>
</svg>
